{
.appVersion = "895";
copyright = "SIL OPEN FONT LICENSE Version 1.1";
date = "2017-03-14 03:51:06 +0000";
designer = "Trevor Bullock";
familyName = "KA EZ Fthora";
fontMaster = (
{
ascender = 800;
capHeight = 700;
descender = -200;
id = "A383B3C9-E966-4FF1-BEC0-8A7CAA0DDDD2";
visible = 1;
xHeight = 500;
}
);
glyphs = (
{
glyphname = a;
lastChange = "2019-03-12 05:52:44 +0000";
layers = (
{
layerId = "A383B3C9-E966-4FF1-BEC0-8A7CAA0DDDD2";
paths = (
{
closed = 1;
nodes = (
"-616 526 OFFCURVE",
"-570 562 OFFCURVE",
"-554 611 CURVE",
"-421 581 LINE SMOOTH",
"-366 568 OFFCURVE",
"-340 607 OFFCURVE",
"-334 623 CURVE",
"-322 651 OFFCURVE",
"-328 708 OFFCURVE",
"-380 722 CURVE SMOOTH",
"-432 735 OFFCURVE",
"-440 666 OFFCURVE",
"-415 660 CURVE SMOOTH",
"-345 645 OFFCURVE",
"-365 593 OFFCURVE",
"-415 604 CURVE SMOOTH",
"-549 634 LINE",
"-548 641 OFFCURVE",
"-547 646 OFFCURVE",
"-547 650 CURVE SMOOTH",
"-547 718 OFFCURVE",
"-603 774 OFFCURVE",
"-671 774 CURVE SMOOTH",
"-724 774 OFFCURVE",
"-770 738 OFFCURVE",
"-788 690 CURVE",
"-918 720 LINE SMOOTH",
"-975 733 OFFCURVE",
"-1000 693 OFFCURVE",
"-1006 678 CURVE SMOOTH",
"-1018 649 OFFCURVE",
"-1012 591 OFFCURVE",
"-960 578 CURVE SMOOTH",
"-908 566 OFFCURVE",
"-900 635 OFFCURVE",
"-925 640 CURVE SMOOTH",
"-994 655 OFFCURVE",
"-976 707 OFFCURVE",
"-924 696 CURVE SMOOTH",
"-793 666 LINE",
"-794 659 OFFCURVE",
"-794 654 OFFCURVE",
"-794 650 CURVE SMOOTH",
"-794 582 OFFCURVE",
"-738 526 OFFCURVE",
"-671 526 CURVE SMOOTH"
);
},
{
closed = 1;
nodes = (
"-724 551 OFFCURVE",
"-770 595 OFFCURVE",
"-770 650 CURVE SMOOTH",
"-770 652 OFFCURVE",
"-770 654 OFFCURVE",
"-769 655 CURVE",
"-769 660 LINE",
"-578 617 LINE",
"-592 579 OFFCURVE",
"-628 551 OFFCURVE",
"-671 551 CURVE SMOOTH"
);
},
{
closed = 1;
nodes = (
"-763 684 LINE",
"-749 722 OFFCURVE",
"-713 749 OFFCURVE",
"-671 749 CURVE SMOOTH",
"-616 749 OFFCURVE",
"-572 704 OFFCURVE",
"-572 650 CURVE SMOOTH",
"-572 640 LINE"
);
}
);
width = 0;
},
{
layerId = "FECF100D-BDC3-4CD6-B2D6-7D9BBCB18CB7";
paths = (
{
closed = 1;
nodes = (
"-616 526 OFFCURVE",
"-570 562 OFFCURVE",
"-554 611 CURVE",
"-421 581 LINE SMOOTH",
"-366 568 OFFCURVE",
"-340 607 OFFCURVE",
"-334 623 CURVE",
"-322 651 OFFCURVE",
"-328 708 OFFCURVE",
"-380 722 CURVE SMOOTH",
"-432 735 OFFCURVE",
"-440 666 OFFCURVE",
"-415 660 CURVE SMOOTH",
"-345 645 OFFCURVE",
"-365 593 OFFCURVE",
"-415 604 CURVE SMOOTH",
"-549 634 LINE",
"-548 641 OFFCURVE",
"-547 646 OFFCURVE",
"-547 650 CURVE SMOOTH",
"-547 718 OFFCURVE",
"-603 774 OFFCURVE",
"-671 774 CURVE SMOOTH",
"-724 774 OFFCURVE",
"-770 738 OFFCURVE",
"-788 690 CURVE",
"-918 720 LINE SMOOTH",
"-975 733 OFFCURVE",
"-1000 693 OFFCURVE",
"-1006 678 CURVE SMOOTH",
"-1018 649 OFFCURVE",
"-1012 591 OFFCURVE",
"-960 578 CURVE SMOOTH",
"-908 566 OFFCURVE",
"-900 635 OFFCURVE",
"-925 640 CURVE SMOOTH",
"-994 655 OFFCURVE",
"-976 707 OFFCURVE",
"-924 696 CURVE SMOOTH",
"-793 666 LINE",
"-794 659 OFFCURVE",
"-794 654 OFFCURVE",
"-794 650 CURVE SMOOTH",
"-794 582 OFFCURVE",
"-738 526 OFFCURVE",
"-671 526 CURVE SMOOTH"
);
},
{
closed = 1;
nodes = (
"-724 551 OFFCURVE",
"-770 595 OFFCURVE",
"-770 650 CURVE SMOOTH",
"-770 652 OFFCURVE",
"-770 654 OFFCURVE",
"-769 655 CURVE",
"-769 660 LINE",
"-578 617 LINE",
"-592 579 OFFCURVE",
"-628 551 OFFCURVE",
"-671 551 CURVE SMOOTH"
);
},
{
closed = 1;
nodes = (
"-763 684 LINE",
"-749 722 OFFCURVE",
"-713 749 OFFCURVE",
"-671 749 CURVE SMOOTH",
"-616 749 OFFCURVE",
"-572 704 OFFCURVE",
"-572 650 CURVE SMOOTH",
"-572 640 LINE"
);
}
);
width = 0;
}
);
unicode = 0061;
},
{
glyphname = d;
lastChange = "2019-03-12 05:52:44 +0000";
layers = (
{
layerId = "A383B3C9-E966-4FF1-BEC0-8A7CAA0DDDD2";
paths = (
{
closed = 1;
nodes = (
"-311 513 OFFCURVE",
"-293 555 OFFCURVE",
"-302 601 CURVE SMOOTH",
"-311 645 OFFCURVE",
"-363 660 OFFCURVE",
"-410 666 CURVE",
"-454 670 OFFCURVE",
"-483 674 OFFCURVE",
"-568 674 CURVE",
"-572 736 OFFCURVE",
"-626 787 OFFCURVE",
"-690 787 CURVE SMOOTH",
"-754 787 OFFCURVE",
"-807 737 OFFCURVE",
"-812 674 CURVE",
"-849 674 OFFCURVE",
"-885 674 OFFCURVE",
"-922 673 CURVE SMOOTH",
"-958 671 OFFCURVE",
"-995 671 OFFCURVE",
"-1032 671 CURVE SMOOTH",
"-1036 671 OFFCURVE",
"-1047 669 OFFCURVE",
"-1047 667 CURVE SMOOTH",
"-1047 656 LINE SMOOTH",
"-1047 653 OFFCURVE",
"-1037 651 OFFCURVE",
"-1032 651 CURVE SMOOTH",
"-995 651 OFFCURVE",
"-962 652 OFFCURVE",
"-932 654 CURVE SMOOTH",
"-902 656 OFFCURVE",
"-862 656 OFFCURVE",
"-811 655 CURVE",
"-807 591 OFFCURVE",
"-754 542 OFFCURVE",
"-690 542 CURVE SMOOTH",
"-624 542 OFFCURVE",
"-572 591 OFFCURVE",
"-568 655 CURVE",
"-500 655 OFFCURVE",
"-479 655 OFFCURVE",
"-401 648 CURVE SMOOTH",
"-364 644 OFFCURVE",
"-325 627 OFFCURVE",
"-325 601 CURVE SMOOTH",
"-325 596 OFFCURVE",
"-326 593 OFFCURVE",
"-329 591 CURVE",
"-332 590 OFFCURVE",
"-340 591 OFFCURVE",
"-351 594 CURVE",
"-373 599 OFFCURVE",
"-397 580 OFFCURVE",
"-397 560 CURVE SMOOTH",
"-397 530 OFFCURVE",
"-383 515 OFFCURVE",
"-357 515 CURVE"
);
},
{
closed = 1;
nodes = (
"-742 567 OFFCURVE",
"-784 604 OFFCURVE",
"-787 655 CURVE",
"-593 655 LINE",
"-597 605 OFFCURVE",
"-639 567 OFFCURVE",
"-690 567 CURVE SMOOTH"
);
},
{
closed = 1;
nodes = (
"-782 723 OFFCURVE",
"-740 763 OFFCURVE",
"-690 763 CURVE SMOOTH",
"-638 763 OFFCURVE",
"-597 723 OFFCURVE",
"-592 674 CURVE",
"-787 674 LINE"
);
}
);
width = 0;
},
{
layerId = "FECF100D-BDC3-4CD6-B2D6-7D9BBCB18CB7";
paths = (
{
closed = 1;
nodes = (
"-311 513 OFFCURVE",
"-293 555 OFFCURVE",
"-302 601 CURVE SMOOTH",
"-311 645 OFFCURVE",
"-363 660 OFFCURVE",
"-410 666 CURVE",
"-454 670 OFFCURVE",
"-483 674 OFFCURVE",
"-568 674 CURVE",
"-572 736 OFFCURVE",
"-626 787 OFFCURVE",
"-690 787 CURVE SMOOTH",
"-754 787 OFFCURVE",
"-807 737 OFFCURVE",
"-812 674 CURVE",
"-849 674 OFFCURVE",
"-885 674 OFFCURVE",
"-922 673 CURVE SMOOTH",
"-958 671 OFFCURVE",
"-995 671 OFFCURVE",
"-1032 671 CURVE SMOOTH",
"-1036 671 OFFCURVE",
"-1047 669 OFFCURVE",
"-1047 667 CURVE SMOOTH",
"-1047 656 LINE SMOOTH",
"-1047 653 OFFCURVE",
"-1037 651 OFFCURVE",
"-1032 651 CURVE SMOOTH",
"-995 651 OFFCURVE",
"-962 652 OFFCURVE",
"-932 654 CURVE SMOOTH",
"-902 656 OFFCURVE",
"-862 656 OFFCURVE",
"-811 655 CURVE",
"-807 591 OFFCURVE",
"-754 542 OFFCURVE",
"-690 542 CURVE SMOOTH",
"-624 542 OFFCURVE",
"-572 591 OFFCURVE",
"-568 655 CURVE",
"-500 655 OFFCURVE",
"-479 655 OFFCURVE",
"-401 648 CURVE SMOOTH",
"-364 644 OFFCURVE",
"-325 627 OFFCURVE",
"-325 601 CURVE SMOOTH",
"-325 596 OFFCURVE",
"-326 593 OFFCURVE",
"-329 591 CURVE",
"-332 590 OFFCURVE",
"-340 591 OFFCURVE",
"-351 594 CURVE",
"-373 599 OFFCURVE",
"-397 580 OFFCURVE",
"-397 560 CURVE SMOOTH",
"-397 530 OFFCURVE",
"-383 515 OFFCURVE",
"-357 515 CURVE"
);
},
{
closed = 1;
nodes = (
"-742 567 OFFCURVE",
"-784 604 OFFCURVE",
"-787 655 CURVE",
"-593 655 LINE",
"-597 605 OFFCURVE",
"-639 567 OFFCURVE",
"-690 567 CURVE SMOOTH"
);
},
{
closed = 1;
nodes = (
"-782 723 OFFCURVE",
"-740 763 OFFCURVE",
"-690 763 CURVE SMOOTH",
"-638 763 OFFCURVE",
"-597 723 OFFCURVE",
"-592 674 CURVE",
"-787 674 LINE"
);
}
);
width = 0;
}
);
unicode = 0064;
},
{
glyphname = e;
lastChange = "2019-03-12 05:52:44 +0000";
layers = (
{
layerId = "A383B3C9-E966-4FF1-BEC0-8A7CAA0DDDD2";
paths = (
{
closed = 1;
nodes = (
"-682 499 OFFCURVE",
"-658 497 OFFCURVE",
"-658 517 CURVE",
"-659 612 LINE",
"-604 618 OFFCURVE",
"-561 664 OFFCURVE",
"-561 721 CURVE SMOOTH",
"-561 777 OFFCURVE",
"-604 823 OFFCURVE",
"-659 829 CURVE",
"-658 926 LINE SMOOTH",
"-658 943 OFFCURVE",
"-682 942 OFFCURVE",
"-682 926 CURVE SMOOTH",
"-681 829 LINE",
"-736 823 OFFCURVE",
"-779 778 OFFCURVE",
"-779 721 CURVE SMOOTH",
"-779 664 OFFCURVE",
"-736 618 OFFCURVE",
"-681 612 CURVE",
"-682 517 LINE SMOOTH"
);
},
{
closed = 1;
nodes = (
"-716 635 OFFCURVE",
"-756 674 OFFCURVE",
"-756 721 CURVE SMOOTH",
"-756 767 OFFCURVE",
"-716 807 OFFCURVE",
"-670 807 CURVE SMOOTH",
"-623 807 OFFCURVE",
"-584 767 OFFCURVE",
"-584 721 CURVE SMOOTH",
"-584 674 OFFCURVE",
"-623 635 OFFCURVE",
"-670 635 CURVE SMOOTH"
);
}
);
width = 0;
},
{
layerId = "FECF100D-BDC3-4CD6-B2D6-7D9BBCB18CB7";
paths = (
{
closed = 1;
nodes = (
"-682 499 OFFCURVE",
"-658 497 OFFCURVE",
"-658 517 CURVE",
"-659 612 LINE",
"-604 618 OFFCURVE",
"-561 664 OFFCURVE",
"-561 721 CURVE SMOOTH",
"-561 777 OFFCURVE",
"-604 823 OFFCURVE",
"-659 829 CURVE",
"-658 926 LINE SMOOTH",
"-658 943 OFFCURVE",
"-682 942 OFFCURVE",
"-682 926 CURVE SMOOTH",
"-681 829 LINE",
"-736 823 OFFCURVE",
"-779 778 OFFCURVE",
"-779 721 CURVE SMOOTH",
"-779 664 OFFCURVE",
"-736 618 OFFCURVE",
"-681 612 CURVE",
"-682 517 LINE SMOOTH"
);
},
{
closed = 1;
nodes = (
"-716 635 OFFCURVE",
"-756 674 OFFCURVE",
"-756 721 CURVE SMOOTH",
"-756 767 OFFCURVE",
"-716 807 OFFCURVE",
"-670 807 CURVE SMOOTH",
"-623 807 OFFCURVE",
"-584 767 OFFCURVE",
"-584 721 CURVE SMOOTH",
"-584 674 OFFCURVE",
"-623 635 OFFCURVE",
"-670 635 CURVE SMOOTH"
);
}
);
width = 0;
}
);
unicode = 0065;
},
{
glyphname = f;
lastChange = "2019-03-12 05:52:44 +0000";
layers = (
{
layerId = "A383B3C9-E966-4FF1-BEC0-8A7CAA0DDDD2";
paths = (
{
closed = 1;
nodes = (
"-813 514 LINE",
"-722 606 LINE",
"-702 589 OFFCURVE",
"-679 580 OFFCURVE",
"-653 580 CURVE SMOOTH",
"-594 580 OFFCURVE",
"-545 629 OFFCURVE",
"-545 688 CURVE SMOOTH",
"-545 713 OFFCURVE",
"-553 734 OFFCURVE",
"-568 754 CURVE",
"-522 799 LINE",
"-479 754 LINE SMOOTH",
"-468 743 OFFCURVE",
"-448 760 OFFCURVE",
"-460 771 CURVE",
"-504 816 LINE",
"-487 833 LINE",
"-460 858 LINE SMOOTH",
"-445 871 OFFCURVE",
"-466 891 OFFCURVE",
"-479 878 CURVE",
"-489 866 LINE",
"-521 834 LINE",
"-566 880 LINE",
"-576 891 OFFCURVE",
"-596 875 OFFCURVE",
"-584 863 CURVE SMOOTH",
"-539 816 LINE",
"-584 771 LINE",
"-604 787 OFFCURVE",
"-627 796 OFFCURVE",
"-653 796 CURVE SMOOTH",
"-712 796 OFFCURVE",
"-761 747 OFFCURVE",
"-761 688 CURVE SMOOTH",
"-761 663 OFFCURVE",
"-753 642 OFFCURVE",
"-738 622 CURVE",
"-842 522 LINE",
"-855 508 OFFCURVE",
"-836 489 OFFCURVE",
"-823 502 CURVE"
);
},
{
closed = 1;
nodes = (
"-699 604 OFFCURVE",
"-737 642 OFFCURVE",
"-737 688 CURVE SMOOTH",
"-737 734 OFFCURVE",
"-699 773 OFFCURVE",
"-653 773 CURVE SMOOTH",
"-607 773 OFFCURVE",
"-568 734 OFFCURVE",
"-568 688 CURVE SMOOTH",
"-568 642 OFFCURVE",
"-607 604 OFFCURVE",
"-653 604 CURVE SMOOTH"
);
}
);
width = 0;
},
{
layerId = "FECF100D-BDC3-4CD6-B2D6-7D9BBCB18CB7";
paths = (
{
closed = 1;
nodes = (
"-813 514 LINE",
"-722 606 LINE",
"-702 589 OFFCURVE",
"-679 580 OFFCURVE",
"-653 580 CURVE SMOOTH",
"-594 580 OFFCURVE",
"-545 629 OFFCURVE",
"-545 688 CURVE SMOOTH",
"-545 713 OFFCURVE",
"-553 734 OFFCURVE",
"-568 754 CURVE",
"-522 799 LINE",
"-479 754 LINE SMOOTH",
"-468 743 OFFCURVE",
"-448 760 OFFCURVE",
"-460 771 CURVE",
"-504 816 LINE",
"-487 833 LINE",
"-460 858 LINE SMOOTH",
"-445 871 OFFCURVE",
"-466 891 OFFCURVE",
"-479 878 CURVE",
"-489 866 LINE",
"-521 834 LINE",
"-566 880 LINE",
"-576 891 OFFCURVE",
"-596 875 OFFCURVE",
"-584 863 CURVE SMOOTH",
"-539 816 LINE",
"-584 771 LINE",
"-604 787 OFFCURVE",
"-627 796 OFFCURVE",
"-653 796 CURVE SMOOTH",
"-712 796 OFFCURVE",
"-761 747 OFFCURVE",
"-761 688 CURVE SMOOTH",
"-761 663 OFFCURVE",
"-753 642 OFFCURVE",
"-738 622 CURVE",
"-842 522 LINE",
"-855 508 OFFCURVE",
"-836 489 OFFCURVE",
"-823 502 CURVE"
);
},
{
closed = 1;
nodes = (
"-699 604 OFFCURVE",
"-737 642 OFFCURVE",
"-737 688 CURVE SMOOTH",
"-737 734 OFFCURVE",
"-699 773 OFFCURVE",
"-653 773 CURVE SMOOTH",
"-607 773 OFFCURVE",
"-568 734 OFFCURVE",
"-568 688 CURVE SMOOTH",
"-568 642 OFFCURVE",
"-607 604 OFFCURVE",
"-653 604 CURVE SMOOTH"
);
}
);
width = 0;
}
);
unicode = 0066;
},
{
glyphname = h;
lastChange = "2019-03-12 05:52:44 +0000";
layers = (
{
layerId = "A383B3C9-E966-4FF1-BEC0-8A7CAA0DDDD2";
paths = (
{
closed = 1;
nodes = (
"-709 516 OFFCURVE",
"-687 528 OFFCURVE",
"-671 548 CURVE SMOOTH",
"-603 636 LINE",
"-587 628 OFFCURVE",
"-570 623 OFFCURVE",
"-551 623 CURVE SMOOTH",
"-491 623 OFFCURVE",
"-442 672 OFFCURVE",
"-442 733 CURVE SMOOTH",
"-442 762 OFFCURVE",
"-452 787 OFFCURVE",
"-473 808 CURVE",
"-421 877 LINE",
"-398 906 LINE",
"-386 923 OFFCURVE",
"-408 939 OFFCURVE",
"-419 924 CURVE",
"-428 910 LINE",
"-491 824 LINE",
"-510 836 OFFCURVE",
"-530 842 OFFCURVE",
"-551 842 CURVE SMOOTH",
"-611 842 OFFCURVE",
"-661 793 OFFCURVE",
"-661 733 CURVE SMOOTH",
"-661 699 OFFCURVE",
"-648 672 OFFCURVE",
"-623 650 CURVE",
"-694 557 LINE SMOOTH",
"-704 544 OFFCURVE",
"-718 534 OFFCURVE",
"-737 529 CURVE SMOOTH",
"-776 519 OFFCURVE",
"-797 531 OFFCURVE",
"-771 553 CURVE SMOOTH",
"-756 566 OFFCURVE",
"-758 596 OFFCURVE",
"-772 607 CURVE SMOOTH",
"-794 624 OFFCURVE",
"-814 621 OFFCURVE",
"-829 600 CURVE SMOOTH",
"-854 566 OFFCURVE",
"-830 526 OFFCURVE",
"-791 510 CURVE SMOOTH",
"-774 503 OFFCURVE",
"-738 500 OFFCURVE",
"-723 509 CURVE"
);
},
{
closed = 1;
nodes = (
"-599 647 OFFCURVE",
"-637 685 OFFCURVE",
"-637 733 CURVE SMOOTH",
"-637 779 OFFCURVE",
"-599 818 OFFCURVE",
"-551 818 CURVE SMOOTH",
"-504 818 OFFCURVE",
"-466 779 OFFCURVE",
"-466 733 CURVE SMOOTH",
"-466 685 OFFCURVE",
"-504 647 OFFCURVE",
"-551 647 CURVE SMOOTH"
);
}
);
width = 0;
},
{
layerId = "FECF100D-BDC3-4CD6-B2D6-7D9BBCB18CB7";
paths = (
{
closed = 1;
nodes = (
"-709 516 OFFCURVE",
"-687 528 OFFCURVE",
"-671 548 CURVE SMOOTH",
"-603 636 LINE",
"-587 628 OFFCURVE",
"-570 623 OFFCURVE",
"-551 623 CURVE SMOOTH",
"-491 623 OFFCURVE",
"-442 672 OFFCURVE",
"-442 733 CURVE SMOOTH",
"-442 762 OFFCURVE",
"-452 787 OFFCURVE",
"-473 808 CURVE",
"-421 877 LINE",
"-398 906 LINE",
"-386 923 OFFCURVE",
"-408 939 OFFCURVE",
"-419 924 CURVE",
"-428 910 LINE",
"-491 824 LINE",
"-510 836 OFFCURVE",
"-530 842 OFFCURVE",
"-551 842 CURVE SMOOTH",
"-611 842 OFFCURVE",
"-661 793 OFFCURVE",
"-661 733 CURVE SMOOTH",
"-661 699 OFFCURVE",
"-648 672 OFFCURVE",
"-623 650 CURVE",
"-694 557 LINE SMOOTH",
"-704 544 OFFCURVE",
"-718 534 OFFCURVE",
"-737 529 CURVE SMOOTH",
"-776 519 OFFCURVE",
"-797 531 OFFCURVE",
"-771 553 CURVE SMOOTH",
"-756 566 OFFCURVE",
"-758 596 OFFCURVE",
"-772 607 CURVE SMOOTH",
"-794 624 OFFCURVE",
"-814 621 OFFCURVE",
"-829 600 CURVE SMOOTH",
"-854 566 OFFCURVE",
"-830 526 OFFCURVE",
"-791 510 CURVE SMOOTH",
"-774 503 OFFCURVE",
"-738 500 OFFCURVE",
"-723 509 CURVE"
);
},
{
closed = 1;
nodes = (
"-599 647 OFFCURVE",
"-637 685 OFFCURVE",
"-637 733 CURVE SMOOTH",
"-637 779 OFFCURVE",
"-599 818 OFFCURVE",
"-551 818 CURVE SMOOTH",
"-504 818 OFFCURVE",
"-466 779 OFFCURVE",
"-466 733 CURVE SMOOTH",
"-466 685 OFFCURVE",
"-504 647 OFFCURVE",
"-551 647 CURVE SMOOTH"
);
}
);
width = 0;
}
);
unicode = 0068;
},
{
glyphname = i;
lastChange = "2019-03-12 05:52:44 +0000";
layers = (
{
layerId = "A383B3C9-E966-4FF1-BEC0-8A7CAA0DDDD2";
paths = (
{
closed = 1;
nodes = (
"-749 604 OFFCURVE",
"-734 601 OFFCURVE",
"-719 601 CURVE SMOOTH",
"-661 601 OFFCURVE",
"-613 649 OFFCURVE",
"-613 708 CURVE SMOOTH",
"-613 766 OFFCURVE",
"-661 814 OFFCURVE",
"-719 814 CURVE SMOOTH",
"-778 814 OFFCURVE",
"-826 766 OFFCURVE",
"-826 708 CURVE SMOOTH",
"-826 671 OFFCURVE",
"-811 642 OFFCURVE",
"-780 620 CURVE",
"-815 555 LINE SMOOTH",
"-816 554 OFFCURVE",
"-817 551 OFFCURVE",
"-819 549 CURVE SMOOTH",
"-822 546 OFFCURVE",
"-822 543 OFFCURVE",
"-821 538 CURVE",
"-821 536 OFFCURVE",
"-813 525 OFFCURVE",
"-808 525 CURVE",
"-798 523 OFFCURVE",
"-793 526 OFFCURVE",
"-790 534 CURVE SMOOTH",
"-785 548 OFFCURVE",
"-723 546 OFFCURVE",
"-687 514 CURVE SMOOTH",
"-669 498 OFFCURVE",
"-642 489 OFFCURVE",
"-606 487 CURVE",
"-585 486 OFFCURVE",
"-548 488 OFFCURVE",
"-536 514 CURVE SMOOTH",
"-514 562 OFFCURVE",
"-558 591 OFFCURVE",
"-584 574 CURVE SMOOTH",
"-604 561 OFFCURVE",
"-607 546 OFFCURVE",
"-597 533 CURVE SMOOTH",
"-587 519 OFFCURVE",
"-582 512 OFFCURVE",
"-583 512 CURVE",
"-594 508 OFFCURVE",
"-605 510 OFFCURVE",
"-618 523 CURVE SMOOTH",
"-630 535 OFFCURVE",
"-640 542 OFFCURVE",
"-647 546 CURVE SMOOTH",
"-691 571 OFFCURVE",
"-727 577 OFFCURVE",
"-755 564 CURVE SMOOTH",
"-783 551 OFFCURVE",
"-796 547 OFFCURVE",
"-793 554 CURVE",
"-764 610 LINE"
);
},
{
closed = 1;
nodes = (
"-674 791 OFFCURVE",
"-636 754 OFFCURVE",
"-636 708 CURVE SMOOTH",
"-636 662 OFFCURVE",
"-674 624 OFFCURVE",
"-719 624 CURVE SMOOTH",
"-765 624 OFFCURVE",
"-803 662 OFFCURVE",
"-803 708 CURVE SMOOTH",
"-803 754 OFFCURVE",
"-765 791 OFFCURVE",
"-719 791 CURVE SMOOTH"
);
}
);
width = 0;
},
{
layerId = "FECF100D-BDC3-4CD6-B2D6-7D9BBCB18CB7";
paths = (
{
closed = 1;
nodes = (
"-749 604 OFFCURVE",
"-734 601 OFFCURVE",
"-719 601 CURVE SMOOTH",
"-661 601 OFFCURVE",
"-613 649 OFFCURVE",
"-613 708 CURVE SMOOTH",
"-613 766 OFFCURVE",
"-661 814 OFFCURVE",
"-719 814 CURVE SMOOTH",
"-778 814 OFFCURVE",
"-826 766 OFFCURVE",
"-826 708 CURVE SMOOTH",
"-826 671 OFFCURVE",
"-811 642 OFFCURVE",
"-780 620 CURVE",
"-815 555 LINE SMOOTH",
"-816 554 OFFCURVE",
"-817 551 OFFCURVE",
"-819 549 CURVE SMOOTH",
"-822 546 OFFCURVE",
"-822 543 OFFCURVE",
"-821 538 CURVE",
"-821 536 OFFCURVE",
"-813 525 OFFCURVE",
"-808 525 CURVE",
"-798 523 OFFCURVE",
"-793 526 OFFCURVE",
"-790 534 CURVE SMOOTH",
"-785 548 OFFCURVE",
"-723 546 OFFCURVE",
"-687 514 CURVE SMOOTH",
"-669 498 OFFCURVE",
"-642 489 OFFCURVE",
"-606 487 CURVE",
"-585 486 OFFCURVE",
"-548 488 OFFCURVE",
"-536 514 CURVE SMOOTH",
"-514 562 OFFCURVE",
"-558 591 OFFCURVE",
"-584 574 CURVE SMOOTH",
"-604 561 OFFCURVE",
"-607 546 OFFCURVE",
"-597 533 CURVE SMOOTH",
"-587 519 OFFCURVE",
"-582 512 OFFCURVE",
"-583 512 CURVE",
"-594 508 OFFCURVE",
"-605 510 OFFCURVE",
"-618 523 CURVE SMOOTH",
"-630 535 OFFCURVE",
"-640 542 OFFCURVE",
"-647 546 CURVE SMOOTH",
"-691 571 OFFCURVE",
"-727 577 OFFCURVE",
"-755 564 CURVE SMOOTH",
"-783 551 OFFCURVE",
"-796 547 OFFCURVE",
"-793 554 CURVE",
"-764 610 LINE"
);
},
{
closed = 1;
nodes = (
"-674 791 OFFCURVE",
"-636 754 OFFCURVE",
"-636 708 CURVE SMOOTH",
"-636 662 OFFCURVE",
"-674 624 OFFCURVE",
"-719 624 CURVE SMOOTH",
"-765 624 OFFCURVE",
"-803 662 OFFCURVE",
"-803 708 CURVE SMOOTH",
"-803 754 OFFCURVE",
"-765 791 OFFCURVE",
"-719 791 CURVE SMOOTH"
);
}
);
width = 0;
}
);
unicode = 0069;
},
{
glyphname = j;
lastChange = "2019-03-12 05:52:44 +0000";
layers = (
{
layerId = "A383B3C9-E966-4FF1-BEC0-8A7CAA0DDDD2";
paths = (
{
closed = 1;
nodes = (
"-292 535 OFFCURVE",
"-274 575 OFFCURVE",
"-283 620 CURVE SMOOTH",
"-287 640 OFFCURVE",
"-306 659 OFFCURVE",
"-324 667 CURVE SMOOTH",
"-339 674 OFFCURVE",
"-364 683 OFFCURVE",
"-389 685 CURVE SMOOTH",
"-418 688 LINE",
"-426 688 OFFCURVE",
"-439 689 OFFCURVE",
"-456 690 CURVE",
"-455 760 LINE SMOOTH",
"-455 768 OFFCURVE",
"-458 773 OFFCURVE",
"-464 773 CURVE SMOOTH",
"-469 773 LINE SMOOTH",
"-475 773 OFFCURVE",
"-477 768 OFFCURVE",
"-477 760 CURVE SMOOTH",
"-477 691 LINE",
"-491 690 OFFCURVE",
"-504 691 OFFCURVE",
"-516 692 CURVE SMOOTH",
"-528 693 OFFCURVE",
"-541 694 OFFCURVE",
"-555 694 CURVE",
"-560 755 OFFCURVE",
"-611 805 OFFCURVE",
"-674 805 CURVE SMOOTH",
"-738 805 OFFCURVE",
"-789 755 OFFCURVE",
"-795 694 CURVE",
"-831 694 OFFCURVE",
"-867 693 OFFCURVE",
"-903 692 CURVE SMOOTH",
"-939 691 OFFCURVE",
"-975 691 OFFCURVE",
"-1011 691 CURVE SMOOTH",
"-1015 691 OFFCURVE",
"-1026 689 OFFCURVE",
"-1026 686 CURVE SMOOTH",
"-1026 676 LINE SMOOTH",
"-1026 673 OFFCURVE",
"-1015 671 OFFCURVE",
"-1011 671 CURVE SMOOTH",
"-975 671 OFFCURVE",
"-942 672 OFFCURVE",
"-913 674 CURVE SMOOTH",
"-884 675 OFFCURVE",
"-844 676 OFFCURVE",
"-794 675 CURVE",
"-790 613 OFFCURVE",
"-738 564 OFFCURVE",
"-674 564 CURVE SMOOTH",
"-610 564 OFFCURVE",
"-558 613 OFFCURVE",
"-554 675 CURVE",
"-540 675 OFFCURVE",
"-526 675 OFFCURVE",
"-512 674 CURVE",
"-477 674 LINE",
"-477 602 LINE SMOOTH",
"-477 594 OFFCURVE",
"-475 590 OFFCURVE",
"-469 590 CURVE SMOOTH",
"-464 590 LINE SMOOTH",
"-458 590 OFFCURVE",
"-455 594 OFFCURVE",
"-455 602 CURVE SMOOTH",
"-455 673 LINE",
"-423 671 OFFCURVE",
"-412 671 OFFCURVE",
"-380 668 CURVE SMOOTH",
"-345 665 OFFCURVE",
"-305 645 OFFCURVE",
"-305 620 CURVE SMOOTH",
"-305 615 OFFCURVE",
"-307 612 OFFCURVE",
"-310 611 CURVE SMOOTH",
"-313 610 OFFCURVE",
"-320 610 OFFCURVE",
"-332 613 CURVE SMOOTH",
"-353 618 OFFCURVE",
"-377 599 OFFCURVE",
"-377 579 CURVE SMOOTH",
"-377 550 OFFCURVE",
"-364 536 OFFCURVE",
"-337 535 CURVE"
);
},
{
closed = 1;
nodes = (
"-725 588 OFFCURVE",
"-767 625 OFFCURVE",
"-770 675 CURVE",
"-579 675 LINE",
"-584 626 OFFCURVE",
"-624 588 OFFCURVE",
"-674 588 CURVE SMOOTH"
);
},
{
closed = 1;
nodes = (
"-765 743 OFFCURVE",
"-724 781 OFFCURVE",
"-674 781 CURVE SMOOTH",
"-624 781 OFFCURVE",
"-584 742 OFFCURVE",
"-579 694 CURVE",
"-770 694 LINE"
);
}
);
width = 0;
},
{
layerId = "FECF100D-BDC3-4CD6-B2D6-7D9BBCB18CB7";
paths = (
{
closed = 1;
nodes = (
"-292 535 OFFCURVE",
"-274 575 OFFCURVE",
"-283 620 CURVE SMOOTH",
"-287 640 OFFCURVE",
"-306 659 OFFCURVE",
"-324 667 CURVE SMOOTH",
"-339 674 OFFCURVE",
"-364 683 OFFCURVE",
"-389 685 CURVE SMOOTH",
"-418 688 LINE",
"-426 688 OFFCURVE",
"-439 689 OFFCURVE",
"-456 690 CURVE",
"-455 760 LINE SMOOTH",
"-455 768 OFFCURVE",
"-458 773 OFFCURVE",
"-464 773 CURVE SMOOTH",
"-469 773 LINE SMOOTH",
"-475 773 OFFCURVE",
"-477 768 OFFCURVE",
"-477 760 CURVE SMOOTH",
"-477 691 LINE",
"-491 690 OFFCURVE",
"-504 691 OFFCURVE",
"-516 692 CURVE SMOOTH",
"-528 693 OFFCURVE",
"-541 694 OFFCURVE",
"-555 694 CURVE",
"-560 755 OFFCURVE",
"-611 805 OFFCURVE",
"-674 805 CURVE SMOOTH",
"-738 805 OFFCURVE",
"-789 755 OFFCURVE",
"-795 694 CURVE",
"-831 694 OFFCURVE",
"-867 693 OFFCURVE",
"-903 692 CURVE SMOOTH",
"-939 691 OFFCURVE",
"-975 691 OFFCURVE",
"-1011 691 CURVE SMOOTH",
"-1015 691 OFFCURVE",
"-1026 689 OFFCURVE",
"-1026 686 CURVE SMOOTH",
"-1026 676 LINE SMOOTH",
"-1026 673 OFFCURVE",
"-1015 671 OFFCURVE",
"-1011 671 CURVE SMOOTH",
"-975 671 OFFCURVE",
"-942 672 OFFCURVE",
"-913 674 CURVE SMOOTH",
"-884 675 OFFCURVE",
"-844 676 OFFCURVE",
"-794 675 CURVE",
"-790 613 OFFCURVE",
"-738 564 OFFCURVE",
"-674 564 CURVE SMOOTH",
"-610 564 OFFCURVE",
"-558 613 OFFCURVE",
"-554 675 CURVE",
"-540 675 OFFCURVE",
"-526 675 OFFCURVE",
"-512 674 CURVE",
"-477 674 LINE",
"-477 602 LINE SMOOTH",
"-477 594 OFFCURVE",
"-475 590 OFFCURVE",
"-469 590 CURVE SMOOTH",
"-464 590 LINE SMOOTH",
"-458 590 OFFCURVE",
"-455 594 OFFCURVE",
"-455 602 CURVE SMOOTH",
"-455 673 LINE",
"-423 671 OFFCURVE",
"-412 671 OFFCURVE",
"-380 668 CURVE SMOOTH",
"-345 665 OFFCURVE",
"-305 645 OFFCURVE",
"-305 620 CURVE SMOOTH",
"-305 615 OFFCURVE",
"-307 612 OFFCURVE",
"-310 611 CURVE SMOOTH",
"-313 610 OFFCURVE",
"-320 610 OFFCURVE",
"-332 613 CURVE SMOOTH",
"-353 618 OFFCURVE",
"-377 599 OFFCURVE",
"-377 579 CURVE SMOOTH",
"-377 550 OFFCURVE",
"-364 536 OFFCURVE",
"-337 535 CURVE"
);
},
{
closed = 1;
nodes = (
"-725 588 OFFCURVE",
"-767 625 OFFCURVE",
"-770 675 CURVE",
"-579 675 LINE",
"-584 626 OFFCURVE",
"-624 588 OFFCURVE",
"-674 588 CURVE SMOOTH"
);
},
{
closed = 1;
nodes = (
"-765 743 OFFCURVE",
"-724 781 OFFCURVE",
"-674 781 CURVE SMOOTH",
"-624 781 OFFCURVE",
"-584 742 OFFCURVE",
"-579 694 CURVE",
"-770 694 LINE"
);
}
);
width = 0;
}
);
unicode = 006A;
},
{
glyphname = k;
lastChange = "2019-03-12 05:52:44 +0000";
layers = (
{
layerId = "A383B3C9-E966-4FF1-BEC0-8A7CAA0DDDD2";
paths = (
{
closed = 1;
nodes = (
"-710 520 OFFCURVE",
"-687 531 OFFCURVE",
"-672 551 CURVE SMOOTH",
"-606 636 LINE",
"-591 628 OFFCURVE",
"-575 624 OFFCURVE",
"-557 624 CURVE SMOOTH",
"-498 624 OFFCURVE",
"-451 671 OFFCURVE",
"-451 730 CURVE SMOOTH",
"-451 787 OFFCURVE",
"-498 835 OFFCURVE",
"-557 835 CURVE SMOOTH",
"-614 835 OFFCURVE",
"-662 787 OFFCURVE",
"-662 730 CURVE SMOOTH",
"-662 698 OFFCURVE",
"-650 671 OFFCURVE",
"-626 650 CURVE",
"-694 560 LINE SMOOTH",
"-714 535 OFFCURVE",
"-759 521 OFFCURVE",
"-778 534 CURVE",
"-784 537 OFFCURVE",
"-781 545 OFFCURVE",
"-769 556 CURVE",
"-754 568 OFFCURVE",
"-756 599 OFFCURVE",
"-770 608 CURVE SMOOTH",
"-793 623 OFFCURVE",
"-811 621 OFFCURVE",
"-825 601 CURVE SMOOTH",
"-849 568 OFFCURVE",
"-826 531 OFFCURVE",
"-788 515 CURVE",
"-772 507 OFFCURVE",
"-737 505 OFFCURVE",
"-722 513 CURVE"
);
},
{
closed = 1;
nodes = (
"-602 647 OFFCURVE",
"-639 683 OFFCURVE",
"-639 730 CURVE SMOOTH",
"-639 775 OFFCURVE",
"-602 812 OFFCURVE",
"-557 812 CURVE SMOOTH",
"-510 812 OFFCURVE",
"-474 775 OFFCURVE",
"-474 730 CURVE SMOOTH",
"-474 683 OFFCURVE",
"-510 647 OFFCURVE",
"-557 647 CURVE SMOOTH"
);
}
);
width = 0;
},
{
layerId = "FECF100D-BDC3-4CD6-B2D6-7D9BBCB18CB7";
paths = (
{
closed = 1;
nodes = (
"-710 520 OFFCURVE",
"-687 531 OFFCURVE",
"-672 551 CURVE SMOOTH",
"-606 636 LINE",
"-591 628 OFFCURVE",
"-575 624 OFFCURVE",
"-557 624 CURVE SMOOTH",
"-498 624 OFFCURVE",
"-451 671 OFFCURVE",
"-451 730 CURVE SMOOTH",
"-451 787 OFFCURVE",
"-498 835 OFFCURVE",
"-557 835 CURVE SMOOTH",
"-614 835 OFFCURVE",
"-662 787 OFFCURVE",
"-662 730 CURVE SMOOTH",
"-662 698 OFFCURVE",
"-650 671 OFFCURVE",
"-626 650 CURVE",
"-694 560 LINE SMOOTH",
"-714 535 OFFCURVE",
"-759 521 OFFCURVE",
"-778 534 CURVE",
"-784 537 OFFCURVE",
"-781 545 OFFCURVE",
"-769 556 CURVE",
"-754 568 OFFCURVE",
"-756 599 OFFCURVE",
"-770 608 CURVE SMOOTH",
"-793 623 OFFCURVE",
"-811 621 OFFCURVE",
"-825 601 CURVE SMOOTH",
"-849 568 OFFCURVE",
"-826 531 OFFCURVE",
"-788 515 CURVE",
"-772 507 OFFCURVE",
"-737 505 OFFCURVE",
"-722 513 CURVE"
);
},
{
closed = 1;
nodes = (
"-602 647 OFFCURVE",
"-639 683 OFFCURVE",
"-639 730 CURVE SMOOTH",
"-639 775 OFFCURVE",
"-602 812 OFFCURVE",
"-557 812 CURVE SMOOTH",
"-510 812 OFFCURVE",
"-474 775 OFFCURVE",
"-474 730 CURVE SMOOTH",
"-474 683 OFFCURVE",
"-510 647 OFFCURVE",
"-557 647 CURVE SMOOTH"
);
}
);
width = 0;
}
);
unicode = 006B;
},
{
glyphname = q;
lastChange = "2019-03-12 05:52:44 +0000";
layers = (
{
layerId = "A383B3C9-E966-4FF1-BEC0-8A7CAA0DDDD2";
paths = (
{
closed = 1;
nodes = (
"-682 474 OFFCURVE",
"-658 472 OFFCURVE",
"-658 490 CURVE",
"-659 615 LINE",
"-605 620 OFFCURVE",
"-563 666 OFFCURVE",
"-563 722 CURVE SMOOTH",
"-563 780 OFFCURVE",
"-611 828 OFFCURVE",
"-670 828 CURVE SMOOTH",
"-729 828 OFFCURVE",
"-777 780 OFFCURVE",
"-777 722 CURVE SMOOTH",
"-777 666 OFFCURVE",
"-735 620 OFFCURVE",
"-681 615 CURVE",
"-682 490 LINE SMOOTH"
);
},
{
closed = 1;
nodes = (
"-716 638 OFFCURVE",
"-754 675 OFFCURVE",
"-754 722 CURVE SMOOTH",
"-754 768 OFFCURVE",
"-716 805 OFFCURVE",
"-670 805 CURVE SMOOTH",
"-624 805 OFFCURVE",
"-586 768 OFFCURVE",
"-586 722 CURVE SMOOTH",
"-586 675 OFFCURVE",
"-624 638 OFFCURVE",
"-670 638 CURVE SMOOTH"
);
}
);
width = 0;
},
{
layerId = "FECF100D-BDC3-4CD6-B2D6-7D9BBCB18CB7";
paths = (
{
closed = 1;
nodes = (
"-682 474 OFFCURVE",
"-658 472 OFFCURVE",
"-658 490 CURVE",
"-659 615 LINE",
"-605 620 OFFCURVE",
"-563 666 OFFCURVE",
"-563 722 CURVE SMOOTH",
"-563 780 OFFCURVE",
"-611 828 OFFCURVE",
"-670 828 CURVE SMOOTH",
"-729 828 OFFCURVE",
"-777 780 OFFCURVE",
"-777 722 CURVE SMOOTH",
"-777 666 OFFCURVE",
"-735 620 OFFCURVE",
"-681 615 CURVE",
"-682 490 LINE SMOOTH"
);
},
{
closed = 1;
nodes = (
"-716 638 OFFCURVE",
"-754 675 OFFCURVE",
"-754 722 CURVE SMOOTH",
"-754 768 OFFCURVE",
"-716 805 OFFCURVE",
"-670 805 CURVE SMOOTH",
"-624 805 OFFCURVE",
"-586 768 OFFCURVE",
"-586 722 CURVE SMOOTH",
"-586 675 OFFCURVE",
"-624 638 OFFCURVE",
"-670 638 CURVE SMOOTH"
);
}
);
width = 0;
}
);
unicode = 0071;
},
{
glyphname = r;
lastChange = "2019-03-12 05:52:44 +0000";
layers = (
{
layerId = "A383B3C9-E966-4FF1-BEC0-8A7CAA0DDDD2";
paths = (
{
closed = 1;
nodes = (
"-515 477 OFFCURVE",
"-498 492 OFFCURVE",
"-511 506 CURVE",
"-586 581 LINE",
"-552 622 OFFCURVE",
"-554 684 OFFCURVE",
"-594 723 CURVE SMOOTH",
"-632 762 OFFCURVE",
"-694 764 OFFCURVE",
"-736 731 CURVE",
"-815 811 LINE SMOOTH",
"-827 824 OFFCURVE",
"-843 806 OFFCURVE",
"-831 795 CURVE",
"-752 715 LINE",
"-786 673 OFFCURVE",
"-783 612 OFFCURVE",
"-745 572 CURVE SMOOTH",
"-705 533 OFFCURVE",
"-644 531 OFFCURVE",
"-602 565 CURVE",
"-527 489 LINE SMOOTH"
);
},
{
closed = 1;
nodes = (
"-712 724 OFFCURVE",
"-692 732 OFFCURVE",
"-669 732 CURVE SMOOTH",
"-623 732 OFFCURVE",
"-585 694 OFFCURVE",
"-585 648 CURVE SMOOTH",
"-585 601 OFFCURVE",
"-623 564 OFFCURVE",
"-669 564 CURVE SMOOTH",
"-715 564 OFFCURVE",
"-753 601 OFFCURVE",
"-753 648 CURVE SMOOTH",
"-753 671 OFFCURVE",
"-745 691 OFFCURVE",
"-728 707 CURVE SMOOTH"
);
}
);
width = 0;
},
{
layerId = "FECF100D-BDC3-4CD6-B2D6-7D9BBCB18CB7";
paths = (
{
closed = 1;
nodes = (
"-515 477 OFFCURVE",
"-498 492 OFFCURVE",
"-511 506 CURVE",
"-586 581 LINE",
"-552 622 OFFCURVE",
"-554 684 OFFCURVE",
"-594 723 CURVE SMOOTH",
"-632 762 OFFCURVE",
"-694 764 OFFCURVE",
"-736 731 CURVE",
"-815 811 LINE SMOOTH",
"-827 824 OFFCURVE",
"-843 806 OFFCURVE",
"-831 795 CURVE",
"-752 715 LINE",
"-786 673 OFFCURVE",
"-783 612 OFFCURVE",
"-745 572 CURVE SMOOTH",
"-705 533 OFFCURVE",
"-644 531 OFFCURVE",
"-602 565 CURVE",
"-527 489 LINE SMOOTH"
);
},
{
closed = 1;
nodes = (
"-712 724 OFFCURVE",
"-692 732 OFFCURVE",
"-669 732 CURVE SMOOTH",
"-623 732 OFFCURVE",
"-585 694 OFFCURVE",
"-585 648 CURVE SMOOTH",
"-585 601 OFFCURVE",
"-623 564 OFFCURVE",
"-669 564 CURVE SMOOTH",
"-715 564 OFFCURVE",
"-753 601 OFFCURVE",
"-753 648 CURVE SMOOTH",
"-753 671 OFFCURVE",
"-745 691 OFFCURVE",
"-728 707 CURVE SMOOTH"
);
}
);
width = 0;
}
);
unicode = 0072;
},
{
glyphname = u;
lastChange = "2019-03-12 05:52:44 +0000";
layers = (
{
layerId = "A383B3C9-E966-4FF1-BEC0-8A7CAA0DDDD2";
paths = (
{
closed = 1;
nodes = (
"-594 431 OFFCURVE",
"-581 432 OFFCURVE",
"-565 435 CURVE SMOOTH",
"-535 441 OFFCURVE",
"-508 491 OFFCURVE",
"-539 516 CURVE SMOOTH",
"-570 542 OFFCURVE",
"-616 507 OFFCURVE",
"-596 479 CURVE SMOOTH",
"-575 451 OFFCURVE",
"-590 446 OFFCURVE",
"-617 470 CURVE SMOOTH",
"-630 482 OFFCURVE",
"-641 489 OFFCURVE",
"-647 493 CURVE",
"-693 519 OFFCURVE",
"-730 525 OFFCURVE",
"-759 511 CURVE SMOOTH",
"-788 498 OFFCURVE",
"-801 495 OFFCURVE",
"-797 502 CURVE",
"-768 559 LINE",
"-753 553 OFFCURVE",
"-738 550 OFFCURVE",
"-722 550 CURVE SMOOTH",
"-661 550 OFFCURVE",
"-612 599 OFFCURVE",
"-612 660 CURVE SMOOTH",
"-612 706 OFFCURVE",
"-641 746 OFFCURVE",
"-681 763 CURVE",
"-649 844 LINE SMOOTH",
"-642 862 OFFCURVE",
"-667 869 OFFCURVE",
"-674 851 CURVE",
"-674 847 OFFCURVE",
"-678 836 OFFCURVE",
"-685 818 CURVE SMOOTH",
"-692 799 OFFCURVE",
"-698 783 OFFCURVE",
"-703 768 CURVE",
"-711 770 OFFCURVE",
"-717 770 OFFCURVE",
"-722 770 CURVE SMOOTH",
"-782 770 OFFCURVE",
"-832 720 OFFCURVE",
"-832 660 CURVE SMOOTH",
"-832 621 OFFCURVE",
"-817 591 OFFCURVE",
"-785 570 CURVE",
"-821 503 LINE",
"-821 501 OFFCURVE",
"-823 499 OFFCURVE",
"-825 496 CURVE SMOOTH",
"-827 493 OFFCURVE",
"-828 490 OFFCURVE",
"-827 485 CURVE",
"-826 482 OFFCURVE",
"-819 471 OFFCURVE",
"-813 471 CURVE",
"-804 470 OFFCURVE",
"-797 473 OFFCURVE",
"-794 480 CURVE SMOOTH",
"-788 495 OFFCURVE",
"-726 493 OFFCURVE",
"-689 460 CURVE SMOOTH",
"-671 443 OFFCURVE",
"-643 434 OFFCURVE",
"-605 432 CURVE"
);
},
{
closed = 1;
nodes = (
"-770 573 OFFCURVE",
"-809 612 OFFCURVE",
"-809 660 CURVE SMOOTH",
"-809 707 OFFCURVE",
"-770 746 OFFCURVE",
"-722 746 CURVE SMOOTH",
"-674 746 OFFCURVE",
"-636 707 OFFCURVE",
"-636 660 CURVE SMOOTH",
"-636 612 OFFCURVE",
"-674 573 OFFCURVE",
"-722 573 CURVE SMOOTH"
);
}
);
width = 0;
},
{
layerId = "FECF100D-BDC3-4CD6-B2D6-7D9BBCB18CB7";
paths = (
{
closed = 1;
nodes = (
"-594 431 OFFCURVE",
"-581 432 OFFCURVE",
"-565 435 CURVE SMOOTH",
"-535 441 OFFCURVE",
"-508 491 OFFCURVE",
"-539 516 CURVE SMOOTH",
"-570 542 OFFCURVE",
"-616 507 OFFCURVE",
"-596 479 CURVE SMOOTH",
"-575 451 OFFCURVE",
"-590 446 OFFCURVE",
"-617 470 CURVE SMOOTH",
"-630 482 OFFCURVE",
"-641 489 OFFCURVE",
"-647 493 CURVE",
"-693 519 OFFCURVE",
"-730 525 OFFCURVE",
"-759 511 CURVE SMOOTH",
"-788 498 OFFCURVE",
"-801 495 OFFCURVE",
"-797 502 CURVE",
"-768 559 LINE",
"-753 553 OFFCURVE",
"-738 550 OFFCURVE",
"-722 550 CURVE SMOOTH",
"-661 550 OFFCURVE",
"-612 599 OFFCURVE",
"-612 660 CURVE SMOOTH",
"-612 706 OFFCURVE",
"-641 746 OFFCURVE",
"-681 763 CURVE",
"-649 844 LINE SMOOTH",
"-642 862 OFFCURVE",
"-667 869 OFFCURVE",
"-674 851 CURVE",
"-674 847 OFFCURVE",
"-678 836 OFFCURVE",
"-685 818 CURVE SMOOTH",
"-692 799 OFFCURVE",
"-698 783 OFFCURVE",
"-703 768 CURVE",
"-711 770 OFFCURVE",
"-717 770 OFFCURVE",
"-722 770 CURVE SMOOTH",
"-782 770 OFFCURVE",
"-832 720 OFFCURVE",
"-832 660 CURVE SMOOTH",
"-832 621 OFFCURVE",
"-817 591 OFFCURVE",
"-785 570 CURVE",
"-821 503 LINE",
"-821 501 OFFCURVE",
"-823 499 OFFCURVE",
"-825 496 CURVE SMOOTH",
"-827 493 OFFCURVE",
"-828 490 OFFCURVE",
"-827 485 CURVE",
"-826 482 OFFCURVE",
"-819 471 OFFCURVE",
"-813 471 CURVE",
"-804 470 OFFCURVE",
"-797 473 OFFCURVE",
"-794 480 CURVE SMOOTH",
"-788 495 OFFCURVE",
"-726 493 OFFCURVE",
"-689 460 CURVE SMOOTH",
"-671 443 OFFCURVE",
"-643 434 OFFCURVE",
"-605 432 CURVE"
);
},
{
closed = 1;
nodes = (
"-770 573 OFFCURVE",
"-809 612 OFFCURVE",
"-809 660 CURVE SMOOTH",
"-809 707 OFFCURVE",
"-770 746 OFFCURVE",
"-722 746 CURVE SMOOTH",
"-674 746 OFFCURVE",
"-636 707 OFFCURVE",
"-636 660 CURVE SMOOTH",
"-636 612 OFFCURVE",
"-674 573 OFFCURVE",
"-722 573 CURVE SMOOTH"
);
}
);
width = 0;
}
);
unicode = 0075;
},
{
glyphname = w;
lastChange = "2019-03-12 05:52:44 +0000";
layers = (
{
layerId = "A383B3C9-E966-4FF1-BEC0-8A7CAA0DDDD2";
paths = (
{
closed = 1;
nodes = (
"-511 462 OFFCURVE",
"-491 506 OFFCURVE",
"-494 555 CURVE SMOOTH",
"-494 575 OFFCURVE",
"-518 609 OFFCURVE",
"-534 618 CURVE",
"-553 627 OFFCURVE",
"-572 639 OFFCURVE",
"-624 647 CURVE SMOOTH",
"-656 652 OFFCURVE",
"-694 654 OFFCURVE",
"-735 656 CURVE SMOOTH",
"-776 658 OFFCURVE",
"-796 659 OFFCURVE",
"-795 660 CURVE",
"-632 724 LINE SMOOTH",
"-617 730 OFFCURVE",
"-642 769 OFFCURVE",
"-652 772 CURVE",
"-801 825 LINE",
"-646 909 LINE SMOOTH",
"-636 914 OFFCURVE",
"-651 947 OFFCURVE",
"-661 950 CURVE SMOOTH",
"-789 989 LINE",
"-752 995 OFFCURVE",
"-713 1000 OFFCURVE",
"-674 1004 CURVE SMOOTH",
"-634 1008 OFFCURVE",
"-608 1012 OFFCURVE",
"-595 1015 CURVE SMOOTH",
"-590 1016 OFFCURVE",
"-588 1020 OFFCURVE",
"-588 1027 CURVE SMOOTH",
"-588 1035 OFFCURVE",
"-591 1038 OFFCURVE",
"-596 1038 CURVE",
"-633 1033 OFFCURVE",
"-672 1027 OFFCURVE",
"-712 1022 CURVE SMOOTH",
"-751 1017 OFFCURVE",
"-791 1010 OFFCURVE",
"-830 1005 CURVE SMOOTH",
"-845 1003 OFFCURVE",
"-839 954 OFFCURVE",
"-830 951 CURVE SMOOTH",
"-804 943 OFFCURVE",
"-780 936 OFFCURVE",
"-756 929 CURVE SMOOTH",
"-731 922 OFFCURVE",
"-706 914 OFFCURVE",
"-682 907 CURVE",
"-830 829 LINE SMOOTH",
"-848 819 OFFCURVE",
"-832 789 OFFCURVE",
"-829 788 CURVE",
"-671 729 LINE",
"-826 669 LINE SMOOTH",
"-839 664 OFFCURVE",
"-836 642 OFFCURVE",
"-825 636 CURVE",
"-816 629 OFFCURVE",
"-797 628 OFFCURVE",
"-768 631 CURVE SMOOTH",
"-738 634 OFFCURVE",
"-681 630 OFFCURVE",
"-597 617 CURVE SMOOTH",
"-544 609 OFFCURVE",
"-517 588 OFFCURVE",
"-521 556 CURVE SMOOTH",
"-522 547 OFFCURVE",
"-532 546 OFFCURVE",
"-552 552 CURVE",
"-575 558 OFFCURVE",
"-598 539 OFFCURVE",
"-600 518 CURVE SMOOTH",
"-603 485 OFFCURVE",
"-588 468 OFFCURVE",
"-561 466 CURVE SMOOTH"
);
}
);
width = 0;
},
{
layerId = "FECF100D-BDC3-4CD6-B2D6-7D9BBCB18CB7";
paths = (
{
closed = 1;
nodes = (
"-511 462 OFFCURVE",
"-491 506 OFFCURVE",
"-494 555 CURVE SMOOTH",
"-494 575 OFFCURVE",
"-518 609 OFFCURVE",
"-534 618 CURVE",
"-553 627 OFFCURVE",
"-572 639 OFFCURVE",
"-624 647 CURVE SMOOTH",
"-656 652 OFFCURVE",
"-694 654 OFFCURVE",
"-735 656 CURVE SMOOTH",
"-776 658 OFFCURVE",
"-796 659 OFFCURVE",
"-795 660 CURVE",
"-632 724 LINE SMOOTH",
"-617 730 OFFCURVE",
"-642 769 OFFCURVE",
"-652 772 CURVE",
"-801 825 LINE",
"-646 909 LINE SMOOTH",
"-636 914 OFFCURVE",
"-651 947 OFFCURVE",
"-661 950 CURVE SMOOTH",
"-789 989 LINE",
"-752 995 OFFCURVE",
"-713 1000 OFFCURVE",
"-674 1004 CURVE SMOOTH",
"-634 1008 OFFCURVE",
"-608 1012 OFFCURVE",
"-595 1015 CURVE SMOOTH",
"-590 1016 OFFCURVE",
"-588 1020 OFFCURVE",
"-588 1027 CURVE SMOOTH",
"-588 1035 OFFCURVE",
"-591 1038 OFFCURVE",
"-596 1038 CURVE",
"-633 1033 OFFCURVE",
"-672 1027 OFFCURVE",
"-712 1022 CURVE SMOOTH",
"-751 1017 OFFCURVE",
"-791 1010 OFFCURVE",
"-830 1005 CURVE SMOOTH",
"-845 1003 OFFCURVE",
"-839 954 OFFCURVE",
"-830 951 CURVE SMOOTH",
"-804 943 OFFCURVE",
"-780 936 OFFCURVE",
"-756 929 CURVE SMOOTH",
"-731 922 OFFCURVE",
"-706 914 OFFCURVE",
"-682 907 CURVE",
"-830 829 LINE SMOOTH",
"-848 819 OFFCURVE",
"-832 789 OFFCURVE",
"-829 788 CURVE",
"-671 729 LINE",
"-826 669 LINE SMOOTH",
"-839 664 OFFCURVE",
"-836 642 OFFCURVE",
"-825 636 CURVE",
"-816 629 OFFCURVE",
"-797 628 OFFCURVE",
"-768 631 CURVE SMOOTH",
"-738 634 OFFCURVE",
"-681 630 OFFCURVE",
"-597 617 CURVE SMOOTH",
"-544 609 OFFCURVE",
"-517 588 OFFCURVE",
"-521 556 CURVE SMOOTH",
"-522 547 OFFCURVE",
"-532 546 OFFCURVE",
"-552 552 CURVE",
"-575 558 OFFCURVE",
"-598 539 OFFCURVE",
"-600 518 CURVE SMOOTH",
"-603 485 OFFCURVE",
"-588 468 OFFCURVE",
"-561 466 CURVE SMOOTH"
);
}
);
width = 0;
}
);
unicode = 0077;
},
{
glyphname = y;
lastChange = "2019-03-12 05:52:44 +0000";
layers = (
{
layerId = "A383B3C9-E966-4FF1-BEC0-8A7CAA0DDDD2";
paths = (
{
closed = 1;
nodes = (
"-512 441 OFFCURVE",
"-491 485 OFFCURVE",
"-494 534 CURVE",
"-496 554 OFFCURVE",
"-518 588 OFFCURVE",
"-534 597 CURVE",
"-553 606 OFFCURVE",
"-572 619 OFFCURVE",
"-624 626 CURVE SMOOTH",
"-656 630 OFFCURVE",
"-694 633 OFFCURVE",
"-735 636 CURVE",
"-776 637 OFFCURVE",
"-796 639 OFFCURVE",
"-795 640 CURVE",
"-632 704 LINE SMOOTH",
"-618 709 OFFCURVE",
"-642 748 OFFCURVE",
"-652 752 CURVE",
"-801 805 LINE",
"-646 888 LINE SMOOTH",
"-637 893 OFFCURVE",
"-651 926 OFFCURVE",
"-661 929 CURVE SMOOTH",
"-789 968 LINE",
"-765 972 OFFCURVE",
"-737 976 OFFCURVE",
"-706 980 CURVE SMOOTH",
"-624 991 LINE",
"-622 981 OFFCURVE",
"-620 969 OFFCURVE",
"-619 958 CURVE",
"-617 945 OFFCURVE",
"-591 948 OFFCURVE",
"-595 961 CURVE",
"-601 994 LINE",
"-594 995 OFFCURVE",
"-587 996 OFFCURVE",
"-580 996 CURVE",
"-573 997 OFFCURVE",
"-568 997 OFFCURVE",
"-565 998 CURVE",
"-554 999 OFFCURVE",
"-556 1024 OFFCURVE",
"-568 1024 CURVE",
"-585 1021 LINE",
"-592 1019 OFFCURVE",
"-598 1018 OFFCURVE",
"-604 1018 CURVE",
"-606 1027 OFFCURVE",
"-607 1036 OFFCURVE",
"-609 1051 CURVE SMOOTH",
"-610 1057 OFFCURVE",
"-614 1059 OFFCURVE",
"-622 1059 CURVE SMOOTH",
"-631 1059 OFFCURVE",
"-635 1055 OFFCURVE",
"-634 1047 CURVE SMOOTH",
"-633 1039 OFFCURVE",
"-632 1032 OFFCURVE",
"-630 1027 CURVE",
"-629 1022 OFFCURVE",
"-629 1018 OFFCURVE",
"-628 1015 CURVE",
"-662 1010 OFFCURVE",
"-701 1005 OFFCURVE",
"-746 998 CURVE SMOOTH",
"-791 992 OFFCURVE",
"-819 987 OFFCURVE",
"-830 984 CURVE",
"-845 982 OFFCURVE",
"-840 933 OFFCURVE",
"-830 930 CURVE SMOOTH",
"-805 923 OFFCURVE",
"-780 916 OFFCURVE",
"-756 908 CURVE",
"-731 901 OFFCURVE",
"-706 893 OFFCURVE",
"-682 886 CURVE",
"-830 809 LINE",
"-849 798 OFFCURVE",
"-833 769 OFFCURVE",
"-829 767 CURVE",
"-671 709 LINE",
"-826 649 LINE",
"-840 643 OFFCURVE",
"-836 621 OFFCURVE",
"-825 615 CURVE",
"-816 609 OFFCURVE",
"-797 607 OFFCURVE",
"-768 611 CURVE",
"-738 614 OFFCURVE",
"-681 609 OFFCURVE",
"-597 597 CURVE SMOOTH",
"-544 588 OFFCURVE",
"-519 568 OFFCURVE",
"-521 535 CURVE",
"-521 527 OFFCURVE",
"-532 525 OFFCURVE",
"-552 532 CURVE",
"-575 537 OFFCURVE",
"-598 519 OFFCURVE",
"-600 497 CURVE SMOOTH",
"-602 465 OFFCURVE",
"-589 447 OFFCURVE",
"-561 445 CURVE SMOOTH"
);
}
);
width = 0;
},
{
layerId = "FECF100D-BDC3-4CD6-B2D6-7D9BBCB18CB7";
paths = (
{
closed = 1;
nodes = (
"-512 441 OFFCURVE",
"-491 485 OFFCURVE",
"-494 534 CURVE",
"-496 554 OFFCURVE",
"-518 588 OFFCURVE",
"-534 597 CURVE",
"-553 606 OFFCURVE",
"-572 619 OFFCURVE",
"-624 626 CURVE SMOOTH",
"-656 630 OFFCURVE",
"-694 633 OFFCURVE",
"-735 636 CURVE",
"-776 637 OFFCURVE",
"-796 639 OFFCURVE",
"-795 640 CURVE",
"-632 704 LINE SMOOTH",
"-618 709 OFFCURVE",
"-642 748 OFFCURVE",
"-652 752 CURVE",
"-801 805 LINE",
"-646 888 LINE SMOOTH",
"-637 893 OFFCURVE",
"-651 926 OFFCURVE",
"-661 929 CURVE SMOOTH",
"-789 968 LINE",
"-765 972 OFFCURVE",
"-737 976 OFFCURVE",
"-706 980 CURVE SMOOTH",
"-624 991 LINE",
"-622 981 OFFCURVE",
"-620 969 OFFCURVE",
"-619 958 CURVE",
"-617 945 OFFCURVE",
"-591 948 OFFCURVE",
"-595 961 CURVE",
"-601 994 LINE",
"-594 995 OFFCURVE",
"-587 996 OFFCURVE",
"-580 996 CURVE",
"-573 997 OFFCURVE",
"-568 997 OFFCURVE",
"-565 998 CURVE",
"-554 999 OFFCURVE",
"-556 1024 OFFCURVE",
"-568 1024 CURVE",
"-585 1021 LINE",
"-592 1019 OFFCURVE",
"-598 1018 OFFCURVE",
"-604 1018 CURVE",
"-606 1027 OFFCURVE",
"-607 1036 OFFCURVE",
"-609 1051 CURVE SMOOTH",
"-610 1057 OFFCURVE",
"-614 1059 OFFCURVE",
"-622 1059 CURVE SMOOTH",
"-631 1059 OFFCURVE",
"-635 1055 OFFCURVE",
"-634 1047 CURVE SMOOTH",
"-633 1039 OFFCURVE",
"-632 1032 OFFCURVE",
"-630 1027 CURVE",
"-629 1022 OFFCURVE",
"-629 1018 OFFCURVE",
"-628 1015 CURVE",
"-662 1010 OFFCURVE",
"-701 1005 OFFCURVE",
"-746 998 CURVE SMOOTH",
"-791 992 OFFCURVE",
"-819 987 OFFCURVE",
"-830 984 CURVE",
"-845 982 OFFCURVE",
"-840 933 OFFCURVE",
"-830 930 CURVE SMOOTH",
"-805 923 OFFCURVE",
"-780 916 OFFCURVE",
"-756 908 CURVE",
"-731 901 OFFCURVE",
"-706 893 OFFCURVE",
"-682 886 CURVE",
"-830 809 LINE",
"-849 798 OFFCURVE",
"-833 769 OFFCURVE",
"-829 767 CURVE",
"-671 709 LINE",
"-826 649 LINE",
"-840 643 OFFCURVE",
"-836 621 OFFCURVE",
"-825 615 CURVE",
"-816 609 OFFCURVE",
"-797 607 OFFCURVE",
"-768 611 CURVE",
"-738 614 OFFCURVE",
"-681 609 OFFCURVE",
"-597 597 CURVE SMOOTH",
"-544 588 OFFCURVE",
"-519 568 OFFCURVE",
"-521 535 CURVE",
"-521 527 OFFCURVE",
"-532 525 OFFCURVE",
"-552 532 CURVE",
"-575 537 OFFCURVE",
"-598 519 OFFCURVE",
"-600 497 CURVE SMOOTH",
"-602 465 OFFCURVE",
"-589 447 OFFCURVE",
"-561 445 CURVE SMOOTH"
);
}
);
width = 0;
}
);
unicode = 0079;
},
{
glyphname = semicolon;
lastChange = "2019-03-12 05:52:44 +0000";
layers = (
{
layerId = "A383B3C9-E966-4FF1-BEC0-8A7CAA0DDDD2";
paths = (
{
closed = 1;
nodes = (
"-641 489 OFFCURVE",
"-625 501 OFFCURVE",
"-635 511 CURVE SMOOTH",
"-671 548 LINE",
"-653 566 LINE",
"-618 529 LINE SMOOTH",
"-610 520 OFFCURVE",
"-594 533 OFFCURVE",
"-603 543 CURVE",
"-639 580 LINE",
"-618 601 LINE",
"-602 588 OFFCURVE",
"-584 581 OFFCURVE",
"-564 581 CURVE SMOOTH",
"-517 581 OFFCURVE",
"-479 619 OFFCURVE",
"-479 666 CURVE SMOOTH",
"-479 712 OFFCURVE",
"-517 750 OFFCURVE",
"-564 750 CURVE SMOOTH",
"-610 750 OFFCURVE",
"-648 712 OFFCURVE",
"-648 666 CURVE SMOOTH",
"-648 646 OFFCURVE",
"-642 629 OFFCURVE",
"-631 614 CURVE",
"-652 593 LINE",
"-687 628 LINE SMOOTH",
"-696 637 OFFCURVE",
"-711 624 OFFCURVE",
"-701 615 CURVE",
"-666 579 LINE",
"-684 562 LINE",
"-719 597 LINE",
"-726 606 OFFCURVE",
"-742 592 OFFCURVE",
"-732 584 CURVE",
"-698 548 LINE",
"-715 532 LINE SMOOTH",
"-726 521 OFFCURVE",
"-711 506 OFFCURVE",
"-701 516 CURVE",
"-693 526 LINE",
"-684 534 LINE",
"-649 498 LINE"
);
},
{
closed = 1;
nodes = (
"-600 599 OFFCURVE",
"-630 629 OFFCURVE",
"-630 666 CURVE SMOOTH",
"-630 702 OFFCURVE",
"-600 732 OFFCURVE",
"-564 732 CURVE SMOOTH",
"-527 732 OFFCURVE",
"-497 702 OFFCURVE",
"-497 666 CURVE SMOOTH",
"-497 629 OFFCURVE",
"-527 599 OFFCURVE",
"-564 599 CURVE SMOOTH"
);
}
);
width = 0;
},
{
layerId = "FECF100D-BDC3-4CD6-B2D6-7D9BBCB18CB7";
paths = (
{
closed = 1;
nodes = (
"-641 489 OFFCURVE",
"-625 501 OFFCURVE",
"-635 511 CURVE SMOOTH",
"-671 548 LINE",
"-653 566 LINE",
"-618 529 LINE SMOOTH",
"-610 520 OFFCURVE",
"-594 533 OFFCURVE",
"-603 543 CURVE",
"-639 580 LINE",
"-618 601 LINE",
"-602 588 OFFCURVE",
"-584 581 OFFCURVE",
"-564 581 CURVE SMOOTH",
"-517 581 OFFCURVE",
"-479 619 OFFCURVE",
"-479 666 CURVE SMOOTH",
"-479 712 OFFCURVE",
"-517 750 OFFCURVE",
"-564 750 CURVE SMOOTH",
"-610 750 OFFCURVE",
"-648 712 OFFCURVE",
"-648 666 CURVE SMOOTH",
"-648 646 OFFCURVE",
"-642 629 OFFCURVE",
"-631 614 CURVE",
"-652 593 LINE",
"-687 628 LINE SMOOTH",
"-696 637 OFFCURVE",
"-711 624 OFFCURVE",
"-701 615 CURVE",
"-666 579 LINE",
"-684 562 LINE",
"-719 597 LINE",
"-726 606 OFFCURVE",
"-742 592 OFFCURVE",
"-732 584 CURVE",
"-698 548 LINE",
"-715 532 LINE SMOOTH",
"-726 521 OFFCURVE",
"-711 506 OFFCURVE",
"-701 516 CURVE",
"-693 526 LINE",
"-684 534 LINE",
"-649 498 LINE"
);
},
{
closed = 1;
nodes = (
"-600 599 OFFCURVE",
"-630 629 OFFCURVE",
"-630 666 CURVE SMOOTH",
"-630 702 OFFCURVE",
"-600 732 OFFCURVE",
"-564 732 CURVE SMOOTH",
"-527 732 OFFCURVE",
"-497 702 OFFCURVE",
"-497 666 CURVE SMOOTH",
"-497 629 OFFCURVE",
"-527 599 OFFCURVE",
"-564 599 CURVE SMOOTH"
);
}
);
width = 0;
}
);
unicode = 003B;
},
{
glyphname = bracketleft;
lastChange = "2019-03-12 05:52:44 +0000";
layers = (
{
layerId = "A383B3C9-E966-4FF1-BEC0-8A7CAA0DDDD2";
paths = (
{
closed = 1;
nodes = (
"-621 509 OFFCURVE",
"-606 522 OFFCURVE",
"-616 532 CURVE SMOOTH",
"-651 568 LINE",
"-616 603 LINE",
"-600 590 OFFCURVE",
"-582 584 OFFCURVE",
"-562 584 CURVE SMOOTH",
"-516 584 OFFCURVE",
"-478 621 OFFCURVE",
"-478 667 CURVE SMOOTH",
"-478 714 OFFCURVE",
"-516 751 OFFCURVE",
"-562 751 CURVE SMOOTH",
"-608 751 OFFCURVE",
"-646 714 OFFCURVE",
"-646 667 CURVE SMOOTH",
"-646 648 OFFCURVE",
"-640 631 OFFCURVE",
"-628 616 CURVE",
"-664 581 LINE",
"-698 616 LINE SMOOTH",
"-706 624 OFFCURVE",
"-722 612 OFFCURVE",
"-712 603 CURVE",
"-678 568 LINE",
"-691 555 LINE",
"-712 535 LINE",
"-722 524 OFFCURVE",
"-708 509 OFFCURVE",
"-698 520 CURVE SMOOTH",
"-690 529 LINE",
"-665 554 LINE",
"-630 518 LINE SMOOTH"
);
},
{
closed = 1;
nodes = (
"-598 602 OFFCURVE",
"-628 631 OFFCURVE",
"-628 667 CURVE SMOOTH",
"-628 703 OFFCURVE",
"-598 733 OFFCURVE",
"-562 733 CURVE SMOOTH",
"-525 733 OFFCURVE",
"-496 703 OFFCURVE",
"-496 667 CURVE SMOOTH",
"-496 631 OFFCURVE",
"-525 602 OFFCURVE",
"-562 602 CURVE SMOOTH"
);
}
);
width = 0;
},
{
layerId = "FECF100D-BDC3-4CD6-B2D6-7D9BBCB18CB7";
paths = (
{
closed = 1;
nodes = (
"-621 509 OFFCURVE",
"-606 522 OFFCURVE",
"-616 532 CURVE SMOOTH",
"-651 568 LINE",
"-616 603 LINE",
"-600 590 OFFCURVE",
"-582 584 OFFCURVE",
"-562 584 CURVE SMOOTH",
"-516 584 OFFCURVE",
"-478 621 OFFCURVE",
"-478 667 CURVE SMOOTH",
"-478 714 OFFCURVE",
"-516 751 OFFCURVE",
"-562 751 CURVE SMOOTH",
"-608 751 OFFCURVE",
"-646 714 OFFCURVE",
"-646 667 CURVE SMOOTH",
"-646 648 OFFCURVE",
"-640 631 OFFCURVE",
"-628 616 CURVE",
"-664 581 LINE",
"-698 616 LINE SMOOTH",
"-706 624 OFFCURVE",
"-722 612 OFFCURVE",
"-712 603 CURVE",
"-678 568 LINE",
"-691 555 LINE",
"-712 535 LINE",
"-722 524 OFFCURVE",
"-708 509 OFFCURVE",
"-698 520 CURVE SMOOTH",
"-690 529 LINE",
"-665 554 LINE",
"-630 518 LINE SMOOTH"
);
},
{
closed = 1;
nodes = (
"-598 602 OFFCURVE",
"-628 631 OFFCURVE",
"-628 667 CURVE SMOOTH",
"-628 703 OFFCURVE",
"-598 733 OFFCURVE",
"-562 733 CURVE SMOOTH",
"-525 733 OFFCURVE",
"-496 703 OFFCURVE",
"-496 667 CURVE SMOOTH",
"-496 631 OFFCURVE",
"-525 602 OFFCURVE",
"-562 602 CURVE SMOOTH"
);
}
);
width = 0;
}
);
unicode = 005B;
},
{
glyphname = greater;
lastChange = "2019-03-12 05:52:44 +0000";
layers = (
{
layerId = "A383B3C9-E966-4FF1-BEC0-8A7CAA0DDDD2";
paths = (
{
closed = 1;
nodes = (
"-395 -177 OFFCURVE",
"-390 -176 OFFCURVE",
"-384 -176 CURVE",
"-377 -176 OFFCURVE",
"-374 -177 OFFCURVE",
"-371 -179 CURVE",
"-367 -182 OFFCURVE",
"-367 -183 OFFCURVE",
"-367 -201 CURVE",
"-367 -219 LINE",
"-349 -219 LINE",
"-331 -219 LINE",
"-328 -224 LINE",
"-323 -231 OFFCURVE",
"-318 -243 OFFCURVE",
"-320 -245 CURVE",
"-321 -245 OFFCURVE",
"-331 -246 OFFCURVE",
"-343 -245 CURVE",
"-365 -245 LINE",
"-365 -259 LINE",
"-365 -273 LINE",
"-351 -281 LINE",
"-335 -289 OFFCURVE",
"-320 -301 OFFCURVE",
"-315 -311 CURVE",
"-305 -333 OFFCURVE",
"-325 -375 OFFCURVE",
"-348 -382 CURVE",
"-352 -383 OFFCURVE",
"-364 -384 OFFCURVE",
"-374 -384 CURVE",
"-394 -384 LINE",
"-408 -377 LINE",
"-426 -368 OFFCURVE",
"-436 -360 OFFCURVE",
"-441 -349 CURVE",
"-445 -342 OFFCURVE",
"-445 -339 OFFCURVE",
"-445 -327 CURVE",
"-445 -314 OFFCURVE",
"-445 -312 OFFCURVE",
"-441 -303 CURVE",
"-434 -289 OFFCURVE",
"-421 -279 OFFCURVE",
"-403 -275 CURVE",
"-396 -273 OFFCURVE",
"-396 -273 OFFCURVE",
"-395 -265 CURVE",
"-395 -261 OFFCURVE",
"-394 -254 OFFCURVE",
"-394 -251 CURVE",
"-394 -244 LINE",
"-414 -244 LINE",
"-434 -243 LINE",
"-439 -234 LINE",
"-442 -228 OFFCURVE",
"-444 -223 OFFCURVE",
"-443 -221 CURVE",
"-443 -220 OFFCURVE",
"-438 -219 OFFCURVE",
"-420 -219 CURVE",
"-398 -219 LINE",
"-398 -200 LINE",
"-398 -186 OFFCURVE",
"-397 -179 OFFCURVE",
"-396 -178 CURVE"
);
},
{
closed = 1;
nodes = (
"-374 -301 OFFCURVE",
"-378 -299 OFFCURVE",
"-383 -299 CURVE",
"-389 -298 OFFCURVE",
"-390 -298 OFFCURVE",
"-393 -303 CURVE",
"-400 -315 OFFCURVE",
"-401 -335 OFFCURVE",
"-394 -345 CURVE",
"-392 -347 OFFCURVE",
"-387 -352 OFFCURVE",
"-383 -354 CURVE",
"-375 -358 OFFCURVE",
"-374 -358 OFFCURVE",
"-368 -357 CURVE",
"-361 -355 OFFCURVE",
"-354 -348 OFFCURVE",
"-354 -342 CURVE",
"-354 -332 OFFCURVE",
"-363 -311 OFFCURVE",
"-371 -304 CURVE"
);
}
);
width = 0;
},
{
layerId = "FECF100D-BDC3-4CD6-B2D6-7D9BBCB18CB7";
paths = (
{
closed = 1;
nodes = (
"-395 -177 OFFCURVE",
"-390 -176 OFFCURVE",
"-384 -176 CURVE",
"-377 -176 OFFCURVE",
"-374 -177 OFFCURVE",
"-371 -179 CURVE",
"-367 -182 OFFCURVE",
"-367 -183 OFFCURVE",
"-367 -201 CURVE",
"-367 -219 LINE",
"-349 -219 LINE",
"-331 -219 LINE",
"-328 -224 LINE",
"-323 -231 OFFCURVE",
"-318 -243 OFFCURVE",
"-320 -245 CURVE",
"-321 -245 OFFCURVE",
"-331 -246 OFFCURVE",
"-343 -245 CURVE",
"-365 -245 LINE",
"-365 -259 LINE",
"-365 -273 LINE",
"-351 -281 LINE",
"-335 -289 OFFCURVE",
"-320 -301 OFFCURVE",
"-315 -311 CURVE",
"-305 -333 OFFCURVE",
"-325 -375 OFFCURVE",
"-348 -382 CURVE",
"-352 -383 OFFCURVE",
"-364 -384 OFFCURVE",
"-374 -384 CURVE",
"-394 -384 LINE",
"-408 -377 LINE",
"-426 -368 OFFCURVE",
"-436 -360 OFFCURVE",
"-441 -349 CURVE",
"-445 -342 OFFCURVE",
"-445 -339 OFFCURVE",
"-445 -327 CURVE",
"-445 -314 OFFCURVE",
"-445 -312 OFFCURVE",
"-441 -303 CURVE",
"-434 -289 OFFCURVE",
"-421 -279 OFFCURVE",
"-403 -275 CURVE",
"-396 -273 OFFCURVE",
"-396 -273 OFFCURVE",
"-395 -265 CURVE",
"-395 -261 OFFCURVE",
"-394 -254 OFFCURVE",
"-394 -251 CURVE",
"-394 -244 LINE",
"-414 -244 LINE",
"-434 -243 LINE",
"-439 -234 LINE",
"-442 -228 OFFCURVE",
"-444 -223 OFFCURVE",
"-443 -221 CURVE",
"-443 -220 OFFCURVE",
"-438 -219 OFFCURVE",
"-420 -219 CURVE",
"-398 -219 LINE",
"-398 -200 LINE",
"-398 -186 OFFCURVE",
"-397 -179 OFFCURVE",
"-396 -178 CURVE"
);
},
{
closed = 1;
nodes = (
"-374 -301 OFFCURVE",
"-378 -299 OFFCURVE",
"-383 -299 CURVE",
"-389 -298 OFFCURVE",
"-390 -298 OFFCURVE",
"-393 -303 CURVE",
"-400 -315 OFFCURVE",
"-401 -335 OFFCURVE",
"-394 -345 CURVE",
"-392 -347 OFFCURVE",
"-387 -352 OFFCURVE",
"-383 -354 CURVE",
"-375 -358 OFFCURVE",
"-374 -358 OFFCURVE",
"-368 -357 CURVE",
"-361 -355 OFFCURVE",
"-354 -348 OFFCURVE",
"-354 -342 CURVE",
"-354 -332 OFFCURVE",
"-363 -311 OFFCURVE",
"-371 -304 CURVE"
);
}
);
width = 0;
}
);
unicode = 003E;
},
{
glyphname = less;
lastChange = "2019-03-12 05:52:44 +0000";
layers = (
{
layerId = "A383B3C9-E966-4FF1-BEC0-8A7CAA0DDDD2";
paths = (
{
closed = 1;
nodes = (
"-397 -381 OFFCURVE",
"-398 -374 OFFCURVE",
"-398 -360 CURVE",
"-398 -341 LINE",
"-420 -341 LINE",
"-438 -341 OFFCURVE",
"-443 -340 OFFCURVE",
"-443 -339 CURVE",
"-444 -337 OFFCURVE",
"-442 -332 OFFCURVE",
"-439 -326 CURVE",
"-434 -317 LINE",
"-414 -316 LINE",
"-394 -316 LINE",
"-394 -309 LINE",
"-394 -306 OFFCURVE",
"-395 -299 OFFCURVE",
"-395 -295 CURVE",
"-396 -287 OFFCURVE",
"-396 -287 OFFCURVE",
"-403 -285 CURVE",
"-421 -281 OFFCURVE",
"-434 -271 OFFCURVE",
"-441 -257 CURVE",
"-445 -248 OFFCURVE",
"-445 -246 OFFCURVE",
"-445 -233 CURVE",
"-445 -221 OFFCURVE",
"-445 -218 OFFCURVE",
"-441 -211 CURVE",
"-436 -200 OFFCURVE",
"-426 -192 OFFCURVE",
"-408 -183 CURVE",
"-394 -176 LINE",
"-374 -176 LINE",
"-364 -176 OFFCURVE",
"-352 -177 OFFCURVE",
"-348 -178 CURVE",
"-325 -185 OFFCURVE",
"-305 -227 OFFCURVE",
"-315 -249 CURVE",
"-320 -259 OFFCURVE",
"-335 -271 OFFCURVE",
"-351 -279 CURVE",
"-365 -287 LINE",
"-365 -301 LINE",
"-365 -315 LINE",
"-343 -315 LINE",
"-331 -314 OFFCURVE",
"-321 -315 OFFCURVE",
"-320 -315 CURVE",
"-318 -317 OFFCURVE",
"-323 -329 OFFCURVE",
"-328 -336 CURVE",
"-331 -341 LINE",
"-349 -341 LINE",
"-367 -341 LINE",
"-367 -359 LINE",
"-367 -377 OFFCURVE",
"-367 -378 OFFCURVE",
"-371 -381 CURVE",
"-374 -383 OFFCURVE",
"-377 -384 OFFCURVE",
"-384 -384 CURVE",
"-390 -384 OFFCURVE",
"-395 -383 OFFCURVE",
"-396 -382 CURVE"
);
},
{
closed = 1;
nodes = (
"-363 -249 OFFCURVE",
"-354 -228 OFFCURVE",
"-354 -218 CURVE",
"-354 -212 OFFCURVE",
"-361 -205 OFFCURVE",
"-368 -203 CURVE",
"-374 -202 OFFCURVE",
"-375 -202 OFFCURVE",
"-383 -206 CURVE",
"-387 -208 OFFCURVE",
"-392 -213 OFFCURVE",
"-394 -215 CURVE",
"-401 -225 OFFCURVE",
"-400 -245 OFFCURVE",
"-393 -257 CURVE",
"-390 -262 OFFCURVE",
"-389 -262 OFFCURVE",
"-383 -261 CURVE",
"-378 -261 OFFCURVE",
"-374 -259 OFFCURVE",
"-371 -256 CURVE"
);
}
);
width = 0;
},
{
layerId = "FECF100D-BDC3-4CD6-B2D6-7D9BBCB18CB7";
paths = (
{
closed = 1;
nodes = (
"-397 -381 OFFCURVE",
"-398 -374 OFFCURVE",
"-398 -360 CURVE",
"-398 -341 LINE",
"-420 -341 LINE",
"-438 -341 OFFCURVE",
"-443 -340 OFFCURVE",
"-443 -339 CURVE",
"-444 -337 OFFCURVE",
"-442 -332 OFFCURVE",
"-439 -326 CURVE",
"-434 -317 LINE",
"-414 -316 LINE",
"-394 -316 LINE",
"-394 -309 LINE",
"-394 -306 OFFCURVE",
"-395 -299 OFFCURVE",
"-395 -295 CURVE",
"-396 -287 OFFCURVE",
"-396 -287 OFFCURVE",
"-403 -285 CURVE",
"-421 -281 OFFCURVE",
"-434 -271 OFFCURVE",
"-441 -257 CURVE",
"-445 -248 OFFCURVE",
"-445 -246 OFFCURVE",
"-445 -233 CURVE",
"-445 -221 OFFCURVE",
"-445 -218 OFFCURVE",
"-441 -211 CURVE",
"-436 -200 OFFCURVE",
"-426 -192 OFFCURVE",
"-408 -183 CURVE",
"-394 -176 LINE",
"-374 -176 LINE",
"-364 -176 OFFCURVE",
"-352 -177 OFFCURVE",
"-348 -178 CURVE",
"-325 -185 OFFCURVE",
"-305 -227 OFFCURVE",
"-315 -249 CURVE",
"-320 -259 OFFCURVE",
"-335 -271 OFFCURVE",
"-351 -279 CURVE",
"-365 -287 LINE",
"-365 -301 LINE",
"-365 -315 LINE",
"-343 -315 LINE",
"-331 -314 OFFCURVE",
"-321 -315 OFFCURVE",
"-320 -315 CURVE",
"-318 -317 OFFCURVE",
"-323 -329 OFFCURVE",
"-328 -336 CURVE",
"-331 -341 LINE",
"-349 -341 LINE",
"-367 -341 LINE",
"-367 -359 LINE",
"-367 -377 OFFCURVE",
"-367 -378 OFFCURVE",
"-371 -381 CURVE",
"-374 -383 OFFCURVE",
"-377 -384 OFFCURVE",
"-384 -384 CURVE",
"-390 -384 OFFCURVE",
"-395 -383 OFFCURVE",
"-396 -382 CURVE"
);
},
{
closed = 1;
nodes = (
"-363 -249 OFFCURVE",
"-354 -228 OFFCURVE",
"-354 -218 CURVE",
"-354 -212 OFFCURVE",
"-361 -205 OFFCURVE",
"-368 -203 CURVE",
"-374 -202 OFFCURVE",
"-375 -202 OFFCURVE",
"-383 -206 CURVE",
"-387 -208 OFFCURVE",
"-392 -213 OFFCURVE",
"-394 -215 CURVE",
"-401 -225 OFFCURVE",
"-400 -245 OFFCURVE",
"-393 -257 CURVE",
"-390 -262 OFFCURVE",
"-389 -262 OFFCURVE",
"-383 -261 CURVE",
"-378 -261 OFFCURVE",
"-374 -259 OFFCURVE",
"-371 -256 CURVE"
);
}
);
width = 0;
}
);
unicode = 003C;
},
{
glyphname = percent;
lastChange = "2019-03-12 18:05:02 +0000";
layers = (
{
components = (
{
name = five;
transform = "{1, 0, 0, 1, 860, 0}";
}
);
layerId = "A383B3C9-E966-4FF1-BEC0-8A7CAA0DDDD2";
width = 0;
},
{
layerId = "FECF100D-BDC3-4CD6-B2D6-7D9BBCB18CB7";
paths = (
{
closed = 1;
nodes = (
"-351 234 OFFCURVE",
"-352 237 OFFCURVE",
"-353 240 CURVE SMOOTH",
"-354 243 OFFCURVE",
"-353 245 OFFCURVE",
"-347 254 CURVE SMOOTH",
"-338 267 OFFCURVE",
"-329 283 OFFCURVE",
"-329 290 CURVE SMOOTH",
"-329 293 OFFCURVE",
"-331 305 OFFCURVE",
"-338 335 CURVE",
"-347 368 OFFCURVE",
"-348 378 OFFCURVE",
"-348 385 CURVE SMOOTH",
"-348 394 LINE",
"-343 398 LINE",
"-338 404 OFFCURVE",
"-325 410 OFFCURVE",
"-307 413 CURVE SMOOTH",
"-292 416 OFFCURVE",
"-292 416 OFFCURVE",
"-288 412 CURVE SMOOTH",
"-286 410 LINE",
"-289 384 LINE",
"-292 366 OFFCURVE",
"-292 359 OFFCURVE",
"-292 356 CURVE",
"-290 353 LINE",
"-290 353 OFFCURVE",
"-269 361 OFFCURVE",
"-245 369 CURVE SMOOTH",
"-201 384 OFFCURVE",
"-200 384 OFFCURVE",
"-192 384 CURVE SMOOTH",
"-184 384 OFFCURVE",
"-183 384 OFFCURVE",
"-181 380 CURVE SMOOTH",
"-179 376 OFFCURVE",
"-176 362 OFFCURVE",
"-177 356 CURVE",
"-178 352 OFFCURVE",
"-183 345 OFFCURVE",
"-189 342 CURVE SMOOTH",
"-191 341 OFFCURVE",
"-197 340 OFFCURVE",
"-201 339 CURVE",
"-213 338 OFFCURVE",
"-282 315 OFFCURVE",
"-285 310 CURVE",
"-286 310 OFFCURVE",
"-286 309 OFFCURVE",
"-287 308 CURVE",
"-287 305 OFFCURVE",
"-287 305 OFFCURVE",
"-284 304 CURVE",
"-276 301 OFFCURVE",
"-251 296 OFFCURVE",
"-222 291 CURVE SMOOTH",
"-180 284 OFFCURVE",
"-180 283 OFFCURVE",
"-176 279 CURVE",
"-171 273 OFFCURVE",
"-170 268 OFFCURVE",
"-170 259 CURVE SMOOTH",
"-170 250 OFFCURVE",
"-170 250 OFFCURVE",
"-174 246 CURVE",
"-176 243 OFFCURVE",
"-178 243 OFFCURVE",
"-182 243 CURVE SMOOTH",
"-185 243 OFFCURVE",
"-207 248 OFFCURVE",
"-233 254 CURVE SMOOTH",
"-257 259 OFFCURVE",
"-278 264 OFFCURVE",
"-278 264 CURVE SMOOTH",
"-279 264 OFFCURVE",
"-280 262 OFFCURVE",
"-281 259 CURVE",
"-283 250 OFFCURVE",
"-292 241 OFFCURVE",
"-302 236 CURVE",
"-314 231 OFFCURVE",
"-323 228 OFFCURVE",
"-335 228 CURVE SMOOTH",
"-346 228 OFFCURVE",
"-347 229 OFFCURVE",
"-349 232 CURVE"
);
}
);
width = 0;
}
);
unicode = 0025;
},
{
glyphname = ampersand;
lastChange = "2019-03-12 18:05:38 +0000";
layers = (
{
components = (
{
name = seven;
transform = "{1, 0, 0, 1, 860, 0}";
}
);
layerId = "A383B3C9-E966-4FF1-BEC0-8A7CAA0DDDD2";
width = 0;
},
{
layerId = "FECF100D-BDC3-4CD6-B2D6-7D9BBCB18CB7";
paths = (
{
closed = 1;
nodes = (
"-266 247 OFFCURVE",
"-268 252 OFFCURVE",
"-271 256 CURVE",
"-275 264 OFFCURVE",
"-284 291 OFFCURVE",
"-285 297 CURVE",
"-287 303 OFFCURVE",
"-298 316 OFFCURVE",
"-310 325 CURVE SMOOTH",
"-318 331 OFFCURVE",
"-330 338 OFFCURVE",
"-338 340 CURVE",
"-344 342 OFFCURVE",
"-345 344 OFFCURVE",
"-343 360 CURVE",
"-343 379 OFFCURVE",
"-340 386 OFFCURVE",
"-332 395 CURVE",
"-328 399 OFFCURVE",
"-324 402 OFFCURVE",
"-320 403 CURVE SMOOTH",
"-316 404 OFFCURVE",
"-315 404 OFFCURVE",
"-309 401 CURVE SMOOTH",
"-292 392 OFFCURVE",
"-268 359 OFFCURVE",
"-264 339 CURVE SMOOTH",
"-261 323 OFFCURVE",
"-259 315 OFFCURVE",
"-258 316 CURVE",
"-256 322 LINE SMOOTH",
"-252 335 OFFCURVE",
"-236 362 OFFCURVE",
"-217 387 CURVE",
"-209 399 LINE",
"-202 398 LINE",
"-192 398 OFFCURVE",
"-189 395 OFFCURVE",
"-182 386 CURVE",
"-180 381 OFFCURVE",
"-179 379 OFFCURVE",
"-179 375 CURVE SMOOTH",
"-179 369 OFFCURVE",
"-180 367 OFFCURVE",
"-199 336 CURVE",
"-215 312 OFFCURVE",
"-222 300 OFFCURVE",
"-226 289 CURVE",
"-234 270 OFFCURVE",
"-244 251 OFFCURVE",
"-248 246 CURVE",
"-254 240 OFFCURVE",
"-257 240 OFFCURVE",
"-263 246 CURVE"
);
}
);
width = 0;
}
);
unicode = 0026;
},
{
glyphname = asciicircum;
lastChange = "2019-03-12 18:05:18 +0000";
layers = (
{
components = (
{
name = six;
transform = "{1, 0, 0, 1, 860, 0}";
}
);
layerId = "A383B3C9-E966-4FF1-BEC0-8A7CAA0DDDD2";
width = 0;
},
{
layerId = "FECF100D-BDC3-4CD6-B2D6-7D9BBCB18CB7";
paths = (
{
closed = 1;
nodes = (
"-341 248 OFFCURVE",
"-342 254 OFFCURVE",
"-338 267 CURVE SMOOTH",
"-332 287 OFFCURVE",
"-314 314 OFFCURVE",
"-286 348 CURVE SMOOTH",
"-275 361 LINE",
"-286 361 LINE",
"-338 366 OFFCURVE",
"-361 371 OFFCURVE",
"-366 380 CURVE",
"-367 382 OFFCURVE",
"-367 383 OFFCURVE",
"-365 385 CURVE",
"-363 388 OFFCURVE",
"-355 391 OFFCURVE",
"-344 394 CURVE",
"-338 395 OFFCURVE",
"-338 397 OFFCURVE",
"-333 403 CURVE SMOOTH",
"-328 409 OFFCURVE",
"-320 415 OFFCURVE",
"-315 415 CURVE SMOOTH",
"-314 415 OFFCURVE",
"-311 414 OFFCURVE",
"-310 410 CURVE",
"-308 408 OFFCURVE",
"-306 404 OFFCURVE",
"-303 403 CURVE",
"-296 398 OFFCURVE",
"-278 397 OFFCURVE",
"-264 400 CURVE SMOOTH",
"-245 404 OFFCURVE",
"-201 405 OFFCURVE",
"-187 402 CURVE",
"-180 400 OFFCURVE",
"-178 399 OFFCURVE",
"-174 395 CURVE SMOOTH",
"-168 389 OFFCURVE",
"-168 385 OFFCURVE",
"-172 376 CURVE",
"-177 367 OFFCURVE",
"-199 345 OFFCURVE",
"-219 329 CURVE SMOOTH",
"-243 311 OFFCURVE",
"-272 283 OFFCURVE",
"-272 278 CURVE",
"-272 278 OFFCURVE",
"-269 278 OFFCURVE",
"-264 281 CURVE",
"-248 288 OFFCURVE",
"-230 290 OFFCURVE",
"-215 287 CURVE",
"-201 283 OFFCURVE",
"-185 272 OFFCURVE",
"-173 258 CURVE SMOOTH",
"-167 251 OFFCURVE",
"-157 237 OFFCURVE",
"-157 236 CURVE",
"-157 236 OFFCURVE",
"-159 234 OFFCURVE",
"-162 232 CURVE",
"-170 229 OFFCURVE",
"-175 229 OFFCURVE",
"-202 231 CURVE SMOOTH",
"-220 232 LINE",
"-231 238 LINE SMOOTH",
"-257 252 OFFCURVE",
"-259 252 OFFCURVE",
"-296 239 CURVE SMOOTH",
"-311 234 OFFCURVE",
"-325 230 OFFCURVE",
"-326 230 CURVE SMOOTH",
"-326 230 OFFCURVE",
"-329 232 OFFCURVE",
"-332 235 CURVE"
);
}
);
width = 0;
}
);
unicode = 005E;
},
{
export = 0;
glyphname = kentima;
lastChange = "2019-03-12 05:52:44 +0000";
layers = (
{
layerId = "A383B3C9-E966-4FF1-BEC0-8A7CAA0DDDD2";
paths = (
{
closed = 1;
nodes = (
"135 -22 OFFCURVE",
"174 -22 OFFCURVE",
"218 -22 CURVE SMOOTH",
"246 -22 OFFCURVE",
"235 -1 OFFCURVE",
"225 1 CURVE SMOOTH",
"214 3 OFFCURVE",
"213 5 OFFCURVE",
"198 27 CURVE SMOOTH",
"186 44 OFFCURVE",
"155 143 OFFCURVE",
"144 173 CURVE SMOOTH",
"133 203 OFFCURVE",
"122 220 OFFCURVE",
"109 221 CURVE SMOOTH",
"74 224 OFFCURVE",
"27 223 OFFCURVE",
"-12 223 CURVE SMOOTH",
"-35 223 OFFCURVE",
"-30 199 OFFCURVE",
"-12 196 CURVE SMOOTH",
"1 194 OFFCURVE",
"7 193 OFFCURVE",
"12 183 CURVE SMOOTH",
"33 141 OFFCURVE",
"64 43 OFFCURVE",
"71 22 CURVE SMOOTH",
"78 1 OFFCURVE",
"90 -17 OFFCURVE",
"109 -19 CURVE SMOOTH"
);
}
);
width = 268;
},
{
layerId = "FECF100D-BDC3-4CD6-B2D6-7D9BBCB18CB7";
paths = (
{
closed = 1;
nodes = (
"135 -22 OFFCURVE",
"174 -22 OFFCURVE",
"218 -22 CURVE SMOOTH",
"246 -22 OFFCURVE",
"235 -1 OFFCURVE",
"225 1 CURVE SMOOTH",
"214 3 OFFCURVE",
"213 5 OFFCURVE",
"198 27 CURVE SMOOTH",
"186 44 OFFCURVE",
"155 143 OFFCURVE",
"144 173 CURVE SMOOTH",
"133 203 OFFCURVE",
"122 220 OFFCURVE",
"109 221 CURVE SMOOTH",
"74 224 OFFCURVE",
"27 223 OFFCURVE",
"-12 223 CURVE SMOOTH",
"-35 223 OFFCURVE",
"-30 199 OFFCURVE",
"-12 196 CURVE SMOOTH",
"1 194 OFFCURVE",
"7 193 OFFCURVE",
"12 183 CURVE SMOOTH",
"33 141 OFFCURVE",
"64 43 OFFCURVE",
"71 22 CURVE SMOOTH",
"78 1 OFFCURVE",
"90 -17 OFFCURVE",
"109 -19 CURVE SMOOTH"
);
}
);
width = 268;
}
);
},
{
export = 0;
glyphname = hypsele;
lastChange = "2019-03-12 05:52:44 +0000";
layers = (
{
layerId = "A383B3C9-E966-4FF1-BEC0-8A7CAA0DDDD2";
paths = (
{
closed = 1;
nodes = (
"166 199 OFFCURVE",
"189 236 OFFCURVE",
"137 256 CURVE SMOOTH",
"111 266 OFFCURVE",
"92 284 OFFCURVE",
"81 310 CURVE",
"126 310 OFFCURVE",
"191 322 OFFCURVE",
"254 350 CURVE SMOOTH",
"295 368 OFFCURVE",
"321 394 OFFCURVE",
"353 480 CURVE SMOOTH",
"369 523 OFFCURVE",
"387 579 OFFCURVE",
"406 648 CURVE SMOOTH",
"414 677 OFFCURVE",
"423 706 OFFCURVE",
"431 732 CURVE SMOOTH",
"439 759 OFFCURVE",
"448 774 OFFCURVE",
"460 778 CURVE",
"481 780 OFFCURVE",
"484 803 OFFCURVE",
"465 806 CURVE",
"417 800 LINE SMOOTH",
"403 798 OFFCURVE",
"390 797 OFFCURVE",
"379 794 CURVE SMOOTH",
"356 788 OFFCURVE",
"328 769 OFFCURVE",
"314 737 CURVE SMOOTH",
"307 721 OFFCURVE",
"299 690 OFFCURVE",
"290 644 CURVE SMOOTH",
"281 597 OFFCURVE",
"272 562 OFFCURVE",
"267 537 CURVE SMOOTH",
"257 488 OFFCURVE",
"238 435 OFFCURVE",
"218 394 CURVE SMOOTH",
"198 353 OFFCURVE",
"156 337 OFFCURVE",
"127 332 CURVE SMOOTH",
"99 327 OFFCURVE",
"71 330 OFFCURVE",
"48 335 CURVE SMOOTH",
"36 338 OFFCURVE",
"20 333 OFFCURVE",
"30 317 CURVE SMOOTH",
"42 297 OFFCURVE",
"66 272 OFFCURVE",
"99 248 CURVE SMOOTH"
);
}
);
width = 508;
},
{
layerId = "FECF100D-BDC3-4CD6-B2D6-7D9BBCB18CB7";
paths = (
{
closed = 1;
nodes = (
"166 199 OFFCURVE",
"189 236 OFFCURVE",
"137 256 CURVE SMOOTH",
"111 266 OFFCURVE",
"92 284 OFFCURVE",
"81 310 CURVE",
"126 310 OFFCURVE",
"191 322 OFFCURVE",
"254 350 CURVE SMOOTH",
"295 368 OFFCURVE",
"321 394 OFFCURVE",
"353 480 CURVE SMOOTH",
"369 523 OFFCURVE",
"387 579 OFFCURVE",
"406 648 CURVE SMOOTH",
"414 677 OFFCURVE",
"423 706 OFFCURVE",
"431 732 CURVE SMOOTH",
"439 759 OFFCURVE",
"448 774 OFFCURVE",
"460 778 CURVE",
"481 780 OFFCURVE",
"484 803 OFFCURVE",
"465 806 CURVE",
"417 800 LINE SMOOTH",
"403 798 OFFCURVE",
"390 797 OFFCURVE",
"379 794 CURVE SMOOTH",
"356 788 OFFCURVE",
"328 769 OFFCURVE",
"314 737 CURVE SMOOTH",
"307 721 OFFCURVE",
"299 690 OFFCURVE",
"290 644 CURVE SMOOTH",
"281 597 OFFCURVE",
"272 562 OFFCURVE",
"267 537 CURVE SMOOTH",
"257 488 OFFCURVE",
"238 435 OFFCURVE",
"218 394 CURVE SMOOTH",
"198 353 OFFCURVE",
"156 337 OFFCURVE",
"127 332 CURVE SMOOTH",
"99 327 OFFCURVE",
"71 330 OFFCURVE",
"48 335 CURVE SMOOTH",
"36 338 OFFCURVE",
"20 333 OFFCURVE",
"30 317 CURVE SMOOTH",
"42 297 OFFCURVE",
"66 272 OFFCURVE",
"99 248 CURVE SMOOTH"
);
}
);
width = 508;
}
);
},
{
export = 0;
glyphname = haple;
lastChange = "2019-03-12 05:52:44 +0000";
layers = (
{
layerId = "A383B3C9-E966-4FF1-BEC0-8A7CAA0DDDD2";
paths = (
{
closed = 1;
nodes = (
"77 132 OFFCURVE",
"95 132 OFFCURVE",
"113 132 CURVE SMOOTH",
"127 132 OFFCURVE",
"135 141 OFFCURVE",
"138 160 CURVE SMOOTH",
"144 203 LINE SMOOTH",
"146 214 OFFCURVE",
"145 215 OFFCURVE",
"148 217 CURVE SMOOTH",
"151 219 OFFCURVE",
"154 224 OFFCURVE",
"151 227 CURVE SMOOTH",
"148 230 OFFCURVE",
"132 230 OFFCURVE",
"126 230 CURVE SMOOTH",
"72 230 LINE SMOOTH",
"57 230 OFFCURVE",
"48 221 OFFCURVE",
"46 203 CURVE SMOOTH",
"41 160 LINE SMOOTH",
"40 151 OFFCURVE",
"37 147 OFFCURVE",
"34 145 CURVE SMOOTH",
"31 143 OFFCURVE",
"29 142 OFFCURVE",
"30 138 CURVE SMOOTH",
"32 131 OFFCURVE",
"43 132 OFFCURVE",
"59 132 CURVE SMOOTH"
);
}
);
width = 185;
},
{
layerId = "FECF100D-BDC3-4CD6-B2D6-7D9BBCB18CB7";
paths = (
{
closed = 1;
nodes = (
"77 132 OFFCURVE",
"95 132 OFFCURVE",
"113 132 CURVE SMOOTH",
"127 132 OFFCURVE",
"135 141 OFFCURVE",
"138 160 CURVE SMOOTH",
"144 203 LINE SMOOTH",
"146 214 OFFCURVE",
"145 215 OFFCURVE",
"148 217 CURVE SMOOTH",
"151 219 OFFCURVE",
"154 224 OFFCURVE",
"151 227 CURVE SMOOTH",
"148 230 OFFCURVE",
"132 230 OFFCURVE",
"126 230 CURVE SMOOTH",
"72 230 LINE SMOOTH",
"57 230 OFFCURVE",
"48 221 OFFCURVE",
"46 203 CURVE SMOOTH",
"41 160 LINE SMOOTH",
"40 151 OFFCURVE",
"37 147 OFFCURVE",
"34 145 CURVE SMOOTH",
"31 143 OFFCURVE",
"29 142 OFFCURVE",
"30 138 CURVE SMOOTH",
"32 131 OFFCURVE",
"43 132 OFFCURVE",
"59 132 CURVE SMOOTH"
);
}
);
width = 185;
}
);
},
{
export = 0;
glyphname = down_four_small;
lastChange = "2019-03-12 05:52:44 +0000";
layers = (
{
layerId = "A383B3C9-E966-4FF1-BEC0-8A7CAA0DDDD2";
paths = (
{
closed = 1;
nodes = (
"780 -42 LINE SMOOTH",
"807 -42 OFFCURVE",
"816 -37 OFFCURVE",
"816 -32 CURVE SMOOTH",
"816 -23 OFFCURVE",
"801 -6 OFFCURVE",
"796 3 CURVE SMOOTH",
"793 8 OFFCURVE",
"791 26 OFFCURVE",
"788 38 CURVE",
"835 37 OFFCURVE",
"868 39 OFFCURVE",
"887 41 CURVE SMOOTH",
"906 43 OFFCURVE",
"918 48 OFFCURVE",
"924 53 CURVE SMOOTH",
"932 60 OFFCURVE",
"928 77 OFFCURVE",
"916 77 CURVE SMOOTH",
"911 77 OFFCURVE",
"883 73 OFFCURVE",
"868 70 CURVE SMOOTH",
"857 68 OFFCURVE",
"826 66 OFFCURVE",
"785 65 CURVE",
"776 116 LINE SMOOTH",
"772 138 OFFCURVE",
"756 160 OFFCURVE",
"744 161 CURVE SMOOTH",
"720 163 OFFCURVE",
"659 162 OFFCURVE",
"653 154 CURVE SMOOTH",
"650 150 OFFCURVE",
"655 146 OFFCURVE",
"661 140 CURVE SMOOTH",
"666 135 OFFCURVE",
"669 133 OFFCURVE",
"670 128 CURVE SMOOTH",
"674 107 OFFCURVE",
"677 86 OFFCURVE",
"681 65 CURVE",
"564 63 OFFCURVE",
"427 77 OFFCURVE",
"360 126 CURVE SMOOTH",
"310 163 OFFCURVE",
"312 194 OFFCURVE",
"274 332 CURVE SMOOTH",
"258 390 OFFCURVE",
"240 436 OFFCURVE",
"211 438 CURVE SMOOTH",
"152 442 OFFCURVE",
"42 439 OFFCURVE",
"37 436 CURVE SMOOTH",
"24 428 OFFCURVE",
"29 418 OFFCURVE",
"54 408 CURVE SMOOTH",
"59 406 OFFCURVE",
"67 390 OFFCURVE",
"80 360 CURVE SMOOTH",
"104 305 OFFCURVE",
"179 176 OFFCURVE",
"188 161 CURVE SMOOTH",
"217 112 OFFCURVE",
"269 76 OFFCURVE",
"363 61 CURVE SMOOTH",
"412 53 OFFCURVE",
"542 38 OFFCURVE",
"684 38 CURVE",
"692 3 LINE SMOOTH",
"696 -14 OFFCURVE",
"711 -42 OFFCURVE",
"725 -42 CURVE SMOOTH"
);
}
);
width = 958;
},
{
layerId = "FECF100D-BDC3-4CD6-B2D6-7D9BBCB18CB7";
paths = (
{
closed = 1;
nodes = (
"780 -42 LINE SMOOTH",
"807 -42 OFFCURVE",
"816 -37 OFFCURVE",
"816 -32 CURVE SMOOTH",
"816 -23 OFFCURVE",
"801 -6 OFFCURVE",
"796 3 CURVE SMOOTH",
"793 8 OFFCURVE",
"791 26 OFFCURVE",
"788 38 CURVE",
"835 37 OFFCURVE",
"868 39 OFFCURVE",
"887 41 CURVE SMOOTH",
"906 43 OFFCURVE",
"918 48 OFFCURVE",
"924 53 CURVE SMOOTH",
"932 60 OFFCURVE",
"928 77 OFFCURVE",
"916 77 CURVE SMOOTH",
"911 77 OFFCURVE",
"883 73 OFFCURVE",
"868 70 CURVE SMOOTH",
"857 68 OFFCURVE",
"826 66 OFFCURVE",
"785 65 CURVE",
"776 116 LINE SMOOTH",
"772 138 OFFCURVE",
"756 160 OFFCURVE",
"744 161 CURVE SMOOTH",
"720 163 OFFCURVE",
"659 162 OFFCURVE",
"653 154 CURVE SMOOTH",
"650 150 OFFCURVE",
"655 146 OFFCURVE",
"661 140 CURVE SMOOTH",
"666 135 OFFCURVE",
"669 133 OFFCURVE",
"670 128 CURVE SMOOTH",
"674 107 OFFCURVE",
"677 86 OFFCURVE",
"681 65 CURVE",
"564 63 OFFCURVE",
"427 77 OFFCURVE",
"360 126 CURVE SMOOTH",
"310 163 OFFCURVE",
"312 194 OFFCURVE",
"274 332 CURVE SMOOTH",
"258 390 OFFCURVE",
"240 436 OFFCURVE",
"211 438 CURVE SMOOTH",
"152 442 OFFCURVE",
"42 439 OFFCURVE",
"37 436 CURVE SMOOTH",
"24 428 OFFCURVE",
"29 418 OFFCURVE",
"54 408 CURVE SMOOTH",
"59 406 OFFCURVE",
"67 390 OFFCURVE",
"80 360 CURVE SMOOTH",
"104 305 OFFCURVE",
"179 176 OFFCURVE",
"188 161 CURVE SMOOTH",
"217 112 OFFCURVE",
"269 76 OFFCURVE",
"363 61 CURVE SMOOTH",
"412 53 OFFCURVE",
"542 38 OFFCURVE",
"684 38 CURVE",
"692 3 LINE SMOOTH",
"696 -14 OFFCURVE",
"711 -42 OFFCURVE",
"725 -42 CURVE SMOOTH"
);
}
);
width = 958;
}
);
},
{
export = 0;
glyphname = oligon_long;
lastChange = "2019-03-12 05:52:44 +0000";
layers = (
{
layerId = "A383B3C9-E966-4FF1-BEC0-8A7CAA0DDDD2";
paths = (
{
closed = 1;
nodes = (
"1498 -16 OFFCURVE",
"1504 -14 OFFCURVE",
"1507 -7 CURVE SMOOTH",
"1516 13 OFFCURVE",
"1497 34 OFFCURVE",
"1475 56 CURVE SMOOTH",
"1453 78 OFFCURVE",
"1446 84 OFFCURVE",
"1424 96 CURVE SMOOTH",
"1402 108 OFFCURVE",
"1376 112 OFFCURVE",
"1343 112 CURVE SMOOTH",
"136 112 LINE SMOOTH",
"118 112 OFFCURVE",
"104 113 OFFCURVE",
"94 115 CURVE SMOOTH",
"74 119 OFFCURVE",
"63 125 OFFCURVE",
"54 131 CURVE SMOOTH",
"51 133 OFFCURVE",
"46 135 OFFCURVE",
"42 135 CURVE SMOOTH",
"35 135 OFFCURVE",
"26 122 OFFCURVE",
"31 113 CURVE SMOOTH",
"34 108 OFFCURVE",
"40 100 OFFCURVE",
"49 88 CURVE SMOOTH",
"67 65 OFFCURVE",
"85 46 OFFCURVE",
"100 36 CURVE SMOOTH",
"116 26 OFFCURVE",
"130 19 OFFCURVE",
"142 15 CURVE SMOOTH",
"155 11 OFFCURVE",
"177 7 OFFCURVE",
"204 7 CURVE SMOOTH",
"1398 7 LINE SMOOTH",
"1418 7 OFFCURVE",
"1433 6 OFFCURVE",
"1443 5 CURVE SMOOTH",
"1462 3 OFFCURVE",
"1479 -3 OFFCURVE",
"1492 -12 CURVE SMOOTH"
);
}
);
width = 1539;
},
{
layerId = "FECF100D-BDC3-4CD6-B2D6-7D9BBCB18CB7";
paths = (
{
closed = 1;
nodes = (
"1498 -16 OFFCURVE",
"1504 -14 OFFCURVE",
"1507 -7 CURVE SMOOTH",
"1516 13 OFFCURVE",
"1497 34 OFFCURVE",
"1475 56 CURVE SMOOTH",
"1453 78 OFFCURVE",
"1446 84 OFFCURVE",
"1424 96 CURVE SMOOTH",
"1402 108 OFFCURVE",
"1376 112 OFFCURVE",
"1343 112 CURVE SMOOTH",
"136 112 LINE SMOOTH",
"118 112 OFFCURVE",
"104 113 OFFCURVE",
"94 115 CURVE SMOOTH",
"74 119 OFFCURVE",
"63 125 OFFCURVE",
"54 131 CURVE SMOOTH",
"51 133 OFFCURVE",
"46 135 OFFCURVE",
"42 135 CURVE SMOOTH",
"35 135 OFFCURVE",
"26 122 OFFCURVE",
"31 113 CURVE SMOOTH",
"34 108 OFFCURVE",
"40 100 OFFCURVE",
"49 88 CURVE SMOOTH",
"67 65 OFFCURVE",
"85 46 OFFCURVE",
"100 36 CURVE SMOOTH",
"116 26 OFFCURVE",
"130 19 OFFCURVE",
"142 15 CURVE SMOOTH",
"155 11 OFFCURVE",
"177 7 OFFCURVE",
"204 7 CURVE SMOOTH",
"1398 7 LINE SMOOTH",
"1418 7 OFFCURVE",
"1433 6 OFFCURVE",
"1443 5 CURVE SMOOTH",
"1462 3 OFFCURVE",
"1479 -3 OFFCURVE",
"1492 -12 CURVE SMOOTH"
);
}
);
width = 1539;
}
);
},
{
export = 0;
glyphname = ison_short;
lastChange = "2019-03-12 05:52:44 +0000";
layers = (
{
layerId = "A383B3C9-E966-4FF1-BEC0-8A7CAA0DDDD2";
paths = (
{
closed = 1;
nodes = (
"952 178 OFFCURVE",
"960 181 OFFCURVE",
"960 192 CURVE SMOOTH",
"960 197 OFFCURVE",
"959 203 OFFCURVE",
"955 209 CURVE SMOOTH",
"948 220 OFFCURVE",
"920 250 OFFCURVE",
"903 266 CURVE SMOOTH",
"874 293 OFFCURVE",
"824 312 OFFCURVE",
"779 309 CURVE SMOOTH",
"649 300 OFFCURVE",
"520 295 OFFCURVE",
"390 288 CURVE SMOOTH",
"300 283 OFFCURVE",
"231 293 OFFCURVE",
"186 312 CURVE SMOOTH",
"140 331 OFFCURVE",
"117 352 OFFCURVE",
"117 374 CURVE SMOOTH",
"117 417 OFFCURVE",
"159 431 OFFCURVE",
"180 439 CURVE SMOOTH",
"203 448 OFFCURVE",
"212 456 OFFCURVE",
"188 477 CURVE SMOOTH",
"177 487 OFFCURVE",
"165 496 OFFCURVE",
"151 503 CURVE SMOOTH",
"137 510 OFFCURVE",
"123 520 OFFCURVE",
"88 518 CURVE SMOOTH",
"26 515 OFFCURVE",
"13 424 OFFCURVE",
"52 369 CURVE SMOOTH",
"117 276 OFFCURVE",
"215 251 OFFCURVE",
"411 226 CURVE SMOOTH",
"565 206 OFFCURVE",
"737 205 OFFCURVE",
"789 205 CURVE SMOOTH",
"820 205 OFFCURVE",
"861 203 OFFCURVE",
"891 194 CURVE SMOOTH",
"908 189 OFFCURVE",
"936 178 OFFCURVE",
"943 178 CURVE SMOOTH"
);
}
);
width = 990;
},
{
layerId = "FECF100D-BDC3-4CD6-B2D6-7D9BBCB18CB7";
paths = (
{
closed = 1;
nodes = (
"952 178 OFFCURVE",
"960 181 OFFCURVE",
"960 192 CURVE SMOOTH",
"960 197 OFFCURVE",
"959 203 OFFCURVE",
"955 209 CURVE SMOOTH",
"948 220 OFFCURVE",
"920 250 OFFCURVE",
"903 266 CURVE SMOOTH",
"874 293 OFFCURVE",
"824 312 OFFCURVE",
"779 309 CURVE SMOOTH",
"649 300 OFFCURVE",
"520 295 OFFCURVE",
"390 288 CURVE SMOOTH",
"300 283 OFFCURVE",
"231 293 OFFCURVE",
"186 312 CURVE SMOOTH",
"140 331 OFFCURVE",
"117 352 OFFCURVE",
"117 374 CURVE SMOOTH",
"117 417 OFFCURVE",
"159 431 OFFCURVE",
"180 439 CURVE SMOOTH",
"203 448 OFFCURVE",
"212 456 OFFCURVE",
"188 477 CURVE SMOOTH",
"177 487 OFFCURVE",
"165 496 OFFCURVE",
"151 503 CURVE SMOOTH",
"137 510 OFFCURVE",
"123 520 OFFCURVE",
"88 518 CURVE SMOOTH",
"26 515 OFFCURVE",
"13 424 OFFCURVE",
"52 369 CURVE SMOOTH",
"117 276 OFFCURVE",
"215 251 OFFCURVE",
"411 226 CURVE SMOOTH",
"565 206 OFFCURVE",
"737 205 OFFCURVE",
"789 205 CURVE SMOOTH",
"820 205 OFFCURVE",
"861 203 OFFCURVE",
"891 194 CURVE SMOOTH",
"908 189 OFFCURVE",
"936 178 OFFCURVE",
"943 178 CURVE SMOOTH"
);
}
);
width = 990;
}
);
},
{
export = 0;
glyphname = oligon;
lastChange = "2019-03-12 05:52:44 +0000";
layers = (
{
layerId = "A383B3C9-E966-4FF1-BEC0-8A7CAA0DDDD2";
paths = (
{
closed = 1;
nodes = (
"1183 -16 OFFCURVE",
"1189 -14 OFFCURVE",
"1192 -7 CURVE SMOOTH",
"1201 13 OFFCURVE",
"1182 34 OFFCURVE",
"1160 56 CURVE SMOOTH",
"1138 78 OFFCURVE",
"1131 84 OFFCURVE",
"1109 96 CURVE SMOOTH",
"1087 108 OFFCURVE",
"1061 112 OFFCURVE",
"1028 112 CURVE SMOOTH",
"136 112 LINE SMOOTH",
"118 112 OFFCURVE",
"104 113 OFFCURVE",
"94 115 CURVE SMOOTH",
"74 119 OFFCURVE",
"63 125 OFFCURVE",
"54 131 CURVE SMOOTH",
"51 133 OFFCURVE",
"46 135 OFFCURVE",
"42 135 CURVE SMOOTH",
"35 135 OFFCURVE",
"26 122 OFFCURVE",
"31 113 CURVE SMOOTH",
"34 108 OFFCURVE",
"40 100 OFFCURVE",
"49 88 CURVE SMOOTH",
"67 65 OFFCURVE",
"85 46 OFFCURVE",
"100 36 CURVE SMOOTH",
"116 26 OFFCURVE",
"130 19 OFFCURVE",
"142 15 CURVE SMOOTH",
"155 11 OFFCURVE",
"177 7 OFFCURVE",
"204 7 CURVE SMOOTH",
"1083 7 LINE SMOOTH",
"1103 7 OFFCURVE",
"1118 6 OFFCURVE",
"1128 5 CURVE SMOOTH",
"1147 3 OFFCURVE",
"1164 -3 OFFCURVE",
"1177 -12 CURVE SMOOTH"
);
}
);
width = 1224;
},
{
layerId = "FECF100D-BDC3-4CD6-B2D6-7D9BBCB18CB7";
paths = (
{
closed = 1;
nodes = (
"1183 -16 OFFCURVE",
"1189 -14 OFFCURVE",
"1192 -7 CURVE SMOOTH",
"1201 13 OFFCURVE",
"1182 34 OFFCURVE",
"1160 56 CURVE SMOOTH",
"1138 78 OFFCURVE",
"1131 84 OFFCURVE",
"1109 96 CURVE SMOOTH",
"1087 108 OFFCURVE",
"1061 112 OFFCURVE",
"1028 112 CURVE SMOOTH",
"136 112 LINE SMOOTH",
"118 112 OFFCURVE",
"104 113 OFFCURVE",
"94 115 CURVE SMOOTH",
"74 119 OFFCURVE",
"63 125 OFFCURVE",
"54 131 CURVE SMOOTH",
"51 133 OFFCURVE",
"46 135 OFFCURVE",
"42 135 CURVE SMOOTH",
"35 135 OFFCURVE",
"26 122 OFFCURVE",
"31 113 CURVE SMOOTH",
"34 108 OFFCURVE",
"40 100 OFFCURVE",
"49 88 CURVE SMOOTH",
"67 65 OFFCURVE",
"85 46 OFFCURVE",
"100 36 CURVE SMOOTH",
"116 26 OFFCURVE",
"130 19 OFFCURVE",
"142 15 CURVE SMOOTH",
"155 11 OFFCURVE",
"177 7 OFFCURVE",
"204 7 CURVE SMOOTH",
"1083 7 LINE SMOOTH",
"1103 7 OFFCURVE",
"1118 6 OFFCURVE",
"1128 5 CURVE SMOOTH",
"1147 3 OFFCURVE",
"1164 -3 OFFCURVE",
"1177 -12 CURVE SMOOTH"
);
}
);
width = 1224;
}
);
},
{
export = 0;
glyphname = ison;
lastChange = "2019-03-12 05:52:44 +0000";
layers = (
{
layerId = "A383B3C9-E966-4FF1-BEC0-8A7CAA0DDDD2";
paths = (
{
closed = 1;
nodes = (
"1203 -13 OFFCURVE",
"1211 -10 OFFCURVE",
"1211 0 CURVE SMOOTH",
"1211 6 OFFCURVE",
"1210 12 OFFCURVE",
"1206 18 CURVE SMOOTH",
"1199 29 OFFCURVE",
"1171 59 OFFCURVE",
"1153 75 CURVE SMOOTH",
"1136 90 OFFCURVE",
"1125 96 OFFCURVE",
"1107 104 CURVE SMOOTH",
"1089 112 OFFCURVE",
"1068 119 OFFCURVE",
"1030 118 CURVE SMOOTH",
"390 102 LINE SMOOTH",
"299 100 OFFCURVE",
"230 106 OFFCURVE",
"186 125 CURVE SMOOTH",
"139 145 OFFCURVE",
"117 165 OFFCURVE",
"116 188 CURVE SMOOTH",
"114 230 OFFCURVE",
"159 245 OFFCURVE",
"180 252 CURVE SMOOTH",
"189 255 OFFCURVE",
"196 259 OFFCURVE",
"198 261 CURVE SMOOTH",
"213 276 OFFCURVE",
"178 301 OFFCURVE",
"151 316 CURVE SMOOTH",
"136 324 OFFCURVE",
"122 333 OFFCURVE",
"88 332 CURVE SMOOTH",
"17 329 OFFCURVE",
"20 220 OFFCURVE",
"51 183 CURVE SMOOTH",
"110 112 OFFCURVE",
"141 102 OFFCURVE",
"192 82 CURVE SMOOTH",
"293 44 OFFCURVE",
"598 19 OFFCURVE",
"746 16 CURVE SMOOTH",
"861 14 OFFCURVE",
"975 13 OFFCURVE",
"1090 11 CURVE SMOOTH",
"1115 11 OFFCURVE",
"1125 7 OFFCURVE",
"1142 3 CURVE SMOOTH",
"1158 -1 OFFCURVE",
"1173 -7 OFFCURVE",
"1181 -10 CURVE SMOOTH",
"1186 -12 OFFCURVE",
"1190 -13 OFFCURVE",
"1194 -13 CURVE SMOOTH"
);
}
);
width = 1241;
},
{
layerId = "FECF100D-BDC3-4CD6-B2D6-7D9BBCB18CB7";
paths = (
{
closed = 1;
nodes = (
"1203 -13 OFFCURVE",
"1211 -10 OFFCURVE",
"1211 0 CURVE SMOOTH",
"1211 6 OFFCURVE",
"1210 12 OFFCURVE",
"1206 18 CURVE SMOOTH",
"1199 29 OFFCURVE",
"1171 59 OFFCURVE",
"1153 75 CURVE SMOOTH",
"1136 90 OFFCURVE",
"1125 96 OFFCURVE",
"1107 104 CURVE SMOOTH",
"1089 112 OFFCURVE",
"1068 119 OFFCURVE",
"1030 118 CURVE SMOOTH",
"390 102 LINE SMOOTH",
"299 100 OFFCURVE",
"230 106 OFFCURVE",
"186 125 CURVE SMOOTH",
"139 145 OFFCURVE",
"117 165 OFFCURVE",
"116 188 CURVE SMOOTH",
"114 230 OFFCURVE",
"159 245 OFFCURVE",
"180 252 CURVE SMOOTH",
"189 255 OFFCURVE",
"196 259 OFFCURVE",
"198 261 CURVE SMOOTH",
"213 276 OFFCURVE",
"178 301 OFFCURVE",
"151 316 CURVE SMOOTH",
"136 324 OFFCURVE",
"122 333 OFFCURVE",
"88 332 CURVE SMOOTH",
"17 329 OFFCURVE",
"20 220 OFFCURVE",
"51 183 CURVE SMOOTH",
"110 112 OFFCURVE",
"141 102 OFFCURVE",
"192 82 CURVE SMOOTH",
"293 44 OFFCURVE",
"598 19 OFFCURVE",
"746 16 CURVE SMOOTH",
"861 14 OFFCURVE",
"975 13 OFFCURVE",
"1090 11 CURVE SMOOTH",
"1115 11 OFFCURVE",
"1125 7 OFFCURVE",
"1142 3 CURVE SMOOTH",
"1158 -1 OFFCURVE",
"1173 -7 OFFCURVE",
"1181 -10 CURVE SMOOTH",
"1186 -12 OFFCURVE",
"1190 -13 OFFCURVE",
"1194 -13 CURVE SMOOTH"
);
}
);
width = 1241;
}
);
},
{
export = 0;
glyphname = kentima_short;
lastChange = "2019-03-12 05:52:44 +0000";
layers = (
{
layerId = "A383B3C9-E966-4FF1-BEC0-8A7CAA0DDDD2";
paths = (
{
closed = 1;
nodes = (
"236 -22 OFFCURVE",
"225 -1 OFFCURVE",
"215 1 CURVE SMOOTH",
"204 3 OFFCURVE",
"202 3 OFFCURVE",
"193 16 CURVE SMOOTH",
"182 32 OFFCURVE",
"167 63 OFFCURVE",
"154 93 CURVE SMOOTH",
"141 123 OFFCURVE",
"132 140 OFFCURVE",
"119 141 CURVE SMOOTH",
"84 144 OFFCURVE",
"41 143 OFFCURVE",
"2 143 CURVE SMOOTH",
"-21 143 OFFCURVE",
"-16 119 OFFCURVE",
"2 116 CURVE SMOOTH",
"15 114 OFFCURVE",
"17 113 OFFCURVE",
"22 103 CURVE SMOOTH",
"43 61 OFFCURVE",
"60 23 OFFCURVE",
"66 12 CURVE SMOOTH",
"78 -10 OFFCURVE",
"80 -17 OFFCURVE",
"99 -19 CURVE SMOOTH",
"125 -22 OFFCURVE",
"164 -22 OFFCURVE",
"208 -22 CURVE SMOOTH"
);
}
);
width = 256;
},
{
layerId = "FECF100D-BDC3-4CD6-B2D6-7D9BBCB18CB7";
paths = (
{
closed = 1;
nodes = (
"236 -22 OFFCURVE",
"225 -1 OFFCURVE",
"215 1 CURVE SMOOTH",
"204 3 OFFCURVE",
"202 3 OFFCURVE",
"193 16 CURVE SMOOTH",
"182 32 OFFCURVE",
"167 63 OFFCURVE",
"154 93 CURVE SMOOTH",
"141 123 OFFCURVE",
"132 140 OFFCURVE",
"119 141 CURVE SMOOTH",
"84 144 OFFCURVE",
"41 143 OFFCURVE",
"2 143 CURVE SMOOTH",
"-21 143 OFFCURVE",
"-16 119 OFFCURVE",
"2 116 CURVE SMOOTH",
"15 114 OFFCURVE",
"17 113 OFFCURVE",
"22 103 CURVE SMOOTH",
"43 61 OFFCURVE",
"60 23 OFFCURVE",
"66 12 CURVE SMOOTH",
"78 -10 OFFCURVE",
"80 -17 OFFCURVE",
"99 -19 CURVE SMOOTH",
"125 -22 OFFCURVE",
"164 -22 OFFCURVE",
"208 -22 CURVE SMOOTH"
);
}
);
width = 256;
}
);
},
{
export = 0;
glyphname = apostrophos;
lastChange = "2019-03-12 05:52:44 +0000";
layers = (
{
layerId = "A383B3C9-E966-4FF1-BEC0-8A7CAA0DDDD2";
paths = (
{
closed = 1;
nodes = (
"412 -73 OFFCURVE",
"432 -71 OFFCURVE",
"452 -66 CURVE SMOOTH",
"492 -56 OFFCURVE",
"529 -35 OFFCURVE",
"535 10 CURVE SMOOTH",
"541 55 OFFCURVE",
"498 105 OFFCURVE",
"457 132 CURVE SMOOTH",
"416 159 OFFCURVE",
"347 186 OFFCURVE",
"277 203 CURVE SMOOTH",
"206 220 OFFCURVE",
"140 228 OFFCURVE",
"90 232 CURVE SMOOTH",
"65 234 OFFCURVE",
"49 234 OFFCURVE",
"43 234 CURVE SMOOTH",
"29 234 OFFCURVE",
"24 215 OFFCURVE",
"39 208 CURVE SMOOTH",
"41 207 OFFCURVE",
"52 206 OFFCURVE",
"71 207 CURVE SMOOTH",
"89 208 OFFCURVE",
"107 206 OFFCURVE",
"122 205 CURVE SMOOTH",
"213 199 OFFCURVE",
"287 177 OFFCURVE",
"344 148 CURVE SMOOTH",
"398 121 OFFCURVE",
"420 86 OFFCURVE",
"411 44 CURVE SMOOTH",
"400 -6 OFFCURVE",
"356 -45 OFFCURVE",
"338 -45 CURVE SMOOTH",
"321 -45 OFFCURVE",
"304 -58 OFFCURVE",
"317 -66 CURVE SMOOTH",
"322 -69 OFFCURVE",
"357 -73 OFFCURVE",
"394 -73 CURVE SMOOTH"
);
}
);
width = 566;
},
{
layerId = "FECF100D-BDC3-4CD6-B2D6-7D9BBCB18CB7";
paths = (
{
closed = 1;
nodes = (
"412 -73 OFFCURVE",
"432 -71 OFFCURVE",
"452 -66 CURVE SMOOTH",
"492 -56 OFFCURVE",
"529 -35 OFFCURVE",
"535 10 CURVE SMOOTH",
"541 55 OFFCURVE",
"498 105 OFFCURVE",
"457 132 CURVE SMOOTH",
"416 159 OFFCURVE",
"347 186 OFFCURVE",
"277 203 CURVE SMOOTH",
"206 220 OFFCURVE",
"140 228 OFFCURVE",
"90 232 CURVE SMOOTH",
"65 234 OFFCURVE",
"49 234 OFFCURVE",
"43 234 CURVE SMOOTH",
"29 234 OFFCURVE",
"24 215 OFFCURVE",
"39 208 CURVE SMOOTH",
"41 207 OFFCURVE",
"52 206 OFFCURVE",
"71 207 CURVE SMOOTH",
"89 208 OFFCURVE",
"107 206 OFFCURVE",
"122 205 CURVE SMOOTH",
"213 199 OFFCURVE",
"287 177 OFFCURVE",
"344 148 CURVE SMOOTH",
"398 121 OFFCURVE",
"420 86 OFFCURVE",
"411 44 CURVE SMOOTH",
"400 -6 OFFCURVE",
"356 -45 OFFCURVE",
"338 -45 CURVE SMOOTH",
"321 -45 OFFCURVE",
"304 -58 OFFCURVE",
"317 -66 CURVE SMOOTH",
"322 -69 OFFCURVE",
"357 -73 OFFCURVE",
"394 -73 CURVE SMOOTH"
);
}
);
width = 566;
}
);
},
{
export = 0;
glyphname = martyria;
lastChange = "2019-03-12 05:52:44 +0000";
layers = (
{
layerId = "A383B3C9-E966-4FF1-BEC0-8A7CAA0DDDD2";
paths = (
{
closed = 1;
nodes = (
"485 -606 OFFCURVE",
"502 -604 OFFCURVE",
"510 -597 CURVE",
"517 -591 OFFCURVE",
"520 -572 OFFCURVE",
"520 -556 CURVE SMOOTH",
"520 -410 OFFCURVE",
"525 -310 OFFCURVE",
"528 -258 CURVE SMOOTH",
"531 -206 OFFCURVE",
"532 -147 OFFCURVE",
"527 -144 CURVE SMOOTH",
"522 -141 OFFCURVE",
"498 -141 OFFCURVE",
"494 -144 CURVE SMOOTH",
"489 -148 OFFCURVE",
"488 -177 OFFCURVE",
"487 -193 CURVE",
"453 -140 OFFCURVE",
"363 -134 OFFCURVE",
"318 -171 CURVE SMOOTH",
"273 -208 OFFCURVE",
"266 -279 OFFCURVE",
"301 -327 CURVE SMOOTH",
"336 -375 OFFCURVE",
"436 -389 OFFCURVE",
"482 -325 CURVE",
"479 -391 OFFCURVE",
"478 -427 OFFCURVE",
"468 -493 CURVE SMOOTH",
"463 -526 OFFCURVE",
"461 -541 OFFCURVE",
"461 -556 CURVE SMOOTH",
"461 -571 OFFCURVE",
"464 -593 OFFCURVE",
"472 -598 CURVE SMOOTH"
);
},
{
closed = 1;
nodes = (
"330 -338 OFFCURVE",
"319 -283 OFFCURVE",
"341 -235 CURVE SMOOTH",
"363 -187 OFFCURVE",
"398 -159 OFFCURVE",
"430 -174 CURVE SMOOTH",
"464 -190 OFFCURVE",
"474 -226 OFFCURVE",
"459 -287 CURVE SMOOTH",
"444 -349 OFFCURVE",
"405 -362 OFFCURVE",
"361 -348 CURVE SMOOTH"
);
},
{
closed = 1;
nodes = (
"326 22 OFFCURVE",
"338 35 OFFCURVE",
"344 58 CURVE SMOOTH",
"359 114 OFFCURVE",
"362 130 OFFCURVE",
"367 222 CURVE",
"445 218 LINE",
"421 174 OFFCURVE",
"437 99 OFFCURVE",
"453 52 CURVE SMOOTH",
"463 23 OFFCURVE",
"494 10 OFFCURVE",
"522 38 CURVE SMOOTH",
"541 57 OFFCURVE",
"543 90 OFFCURVE",
"540 113 CURVE",
"526 111 OFFCURVE",
"510 107 OFFCURVE",
"492 101 CURVE SMOOTH",
"474 95 OFFCURVE",
"461 101 OFFCURVE",
"457 119 CURVE SMOOTH",
"447 163 OFFCURVE",
"449 173 OFFCURVE",
"460 201 CURVE SMOOTH",
"464 211 OFFCURVE",
"476 216 OFFCURVE",
"496 215 CURVE SMOOTH",
"515 214 OFFCURVE",
"529 212 OFFCURVE",
"538 212 CURVE",
"547 235 OFFCURVE",
"544 252 OFFCURVE",
"539 288 CURVE",
"508 288 OFFCURVE",
"475 290 OFFCURVE",
"439 293 CURVE SMOOTH",
"403 296 OFFCURVE",
"369 297 OFFCURVE",
"338 297 CURVE SMOOTH",
"303 297 OFFCURVE",
"291 284 OFFCURVE",
"279 254 CURVE SMOOTH",
"273 239 OFFCURVE",
"267 218 OFFCURVE",
"263 188 CURVE",
"273 188 LINE",
"291 215 OFFCURVE",
"309 222 OFFCURVE",
"333 222 CURVE SMOOTH",
"362 222 OFFCURVE",
"342 142 OFFCURVE",
"333 123 CURVE SMOOTH",
"329 114 OFFCURVE",
"323 107 OFFCURVE",
"318 102 CURVE SMOOTH",
"312 96 OFFCURVE",
"300 83 OFFCURVE",
"292 74 CURVE SMOOTH",
"282 62 OFFCURVE",
"283 53 OFFCURVE",
"283 48 CURVE SMOOTH",
"283 33 OFFCURVE",
"295 22 OFFCURVE",
"309 22 CURVE SMOOTH"
);
}
);
width = 806;
},
{
layerId = "FECF100D-BDC3-4CD6-B2D6-7D9BBCB18CB7";
paths = (
{
closed = 1;
nodes = (
"485 -606 OFFCURVE",
"502 -604 OFFCURVE",
"510 -597 CURVE",
"517 -591 OFFCURVE",
"520 -572 OFFCURVE",
"520 -556 CURVE SMOOTH",
"520 -410 OFFCURVE",
"525 -310 OFFCURVE",
"528 -258 CURVE SMOOTH",
"531 -206 OFFCURVE",
"532 -147 OFFCURVE",
"527 -144 CURVE SMOOTH",
"522 -141 OFFCURVE",
"498 -141 OFFCURVE",
"494 -144 CURVE SMOOTH",
"489 -148 OFFCURVE",
"488 -177 OFFCURVE",
"487 -193 CURVE",
"453 -140 OFFCURVE",
"363 -134 OFFCURVE",
"318 -171 CURVE SMOOTH",
"273 -208 OFFCURVE",
"266 -279 OFFCURVE",
"301 -327 CURVE SMOOTH",
"336 -375 OFFCURVE",
"436 -389 OFFCURVE",
"482 -325 CURVE",
"479 -391 OFFCURVE",
"478 -427 OFFCURVE",
"468 -493 CURVE SMOOTH",
"463 -526 OFFCURVE",
"461 -541 OFFCURVE",
"461 -556 CURVE SMOOTH",
"461 -571 OFFCURVE",
"464 -593 OFFCURVE",
"472 -598 CURVE SMOOTH"
);
},
{
closed = 1;
nodes = (
"330 -338 OFFCURVE",
"319 -283 OFFCURVE",
"341 -235 CURVE SMOOTH",
"363 -187 OFFCURVE",
"398 -159 OFFCURVE",
"430 -174 CURVE SMOOTH",
"464 -190 OFFCURVE",
"474 -226 OFFCURVE",
"459 -287 CURVE SMOOTH",
"444 -349 OFFCURVE",
"405 -362 OFFCURVE",
"361 -348 CURVE SMOOTH"
);
},
{
closed = 1;
nodes = (
"326 22 OFFCURVE",
"338 35 OFFCURVE",
"344 58 CURVE SMOOTH",
"359 114 OFFCURVE",
"362 130 OFFCURVE",
"367 222 CURVE",
"445 218 LINE",
"421 174 OFFCURVE",
"437 99 OFFCURVE",
"453 52 CURVE SMOOTH",
"463 23 OFFCURVE",
"494 10 OFFCURVE",
"522 38 CURVE SMOOTH",
"541 57 OFFCURVE",
"543 90 OFFCURVE",
"540 113 CURVE",
"526 111 OFFCURVE",
"510 107 OFFCURVE",
"492 101 CURVE SMOOTH",
"474 95 OFFCURVE",
"461 101 OFFCURVE",
"457 119 CURVE SMOOTH",
"447 163 OFFCURVE",
"449 173 OFFCURVE",
"460 201 CURVE SMOOTH",
"464 211 OFFCURVE",
"476 216 OFFCURVE",
"496 215 CURVE SMOOTH",
"515 214 OFFCURVE",
"529 212 OFFCURVE",
"538 212 CURVE",
"547 235 OFFCURVE",
"544 252 OFFCURVE",
"539 288 CURVE",
"508 288 OFFCURVE",
"475 290 OFFCURVE",
"439 293 CURVE SMOOTH",
"403 296 OFFCURVE",
"369 297 OFFCURVE",
"338 297 CURVE SMOOTH",
"303 297 OFFCURVE",
"291 284 OFFCURVE",
"279 254 CURVE SMOOTH",
"273 239 OFFCURVE",
"267 218 OFFCURVE",
"263 188 CURVE",
"273 188 LINE",
"291 215 OFFCURVE",
"309 222 OFFCURVE",
"333 222 CURVE SMOOTH",
"362 222 OFFCURVE",
"342 142 OFFCURVE",
"333 123 CURVE SMOOTH",
"329 114 OFFCURVE",
"323 107 OFFCURVE",
"318 102 CURVE SMOOTH",
"312 96 OFFCURVE",
"300 83 OFFCURVE",
"292 74 CURVE SMOOTH",
"282 62 OFFCURVE",
"283 53 OFFCURVE",
"283 48 CURVE SMOOTH",
"283 33 OFFCURVE",
"295 22 OFFCURVE",
"309 22 CURVE SMOOTH"
);
}
);
width = 806;
}
);
},
{
export = 0;
glyphname = pa;
lastChange = "2019-03-12 05:52:44 +0000";
layers = (
{
layerId = "A383B3C9-E966-4FF1-BEC0-8A7CAA0DDDD2";
paths = (
{
closed = 1;
nodes = (
"326 -538 OFFCURVE",
"338 -525 OFFCURVE",
"344 -502 CURVE SMOOTH",
"359 -446 OFFCURVE",
"362 -430 OFFCURVE",
"367 -338 CURVE",
"445 -342 LINE",
"421 -386 OFFCURVE",
"437 -461 OFFCURVE",
"453 -508 CURVE SMOOTH",
"463 -537 OFFCURVE",
"494 -550 OFFCURVE",
"522 -522 CURVE SMOOTH",
"541 -503 OFFCURVE",
"543 -470 OFFCURVE",
"540 -447 CURVE",
"526 -449 OFFCURVE",
"510 -453 OFFCURVE",
"492 -459 CURVE SMOOTH",
"474 -465 OFFCURVE",
"461 -459 OFFCURVE",
"457 -441 CURVE SMOOTH",
"447 -397 OFFCURVE",
"449 -387 OFFCURVE",
"460 -359 CURVE SMOOTH",
"464 -349 OFFCURVE",
"476 -344 OFFCURVE",
"496 -345 CURVE SMOOTH",
"515 -346 OFFCURVE",
"529 -348 OFFCURVE",
"538 -348 CURVE",
"547 -325 OFFCURVE",
"544 -308 OFFCURVE",
"539 -272 CURVE",
"508 -272 OFFCURVE",
"475 -270 OFFCURVE",
"439 -267 CURVE SMOOTH",
"403 -264 OFFCURVE",
"369 -263 OFFCURVE",
"338 -263 CURVE SMOOTH",
"303 -263 OFFCURVE",
"291 -276 OFFCURVE",
"279 -306 CURVE SMOOTH",
"273 -321 OFFCURVE",
"267 -342 OFFCURVE",
"263 -372 CURVE",
"273 -372 LINE",
"291 -345 OFFCURVE",
"309 -338 OFFCURVE",
"333 -338 CURVE SMOOTH",
"362 -338 OFFCURVE",
"342 -418 OFFCURVE",
"333 -437 CURVE SMOOTH",
"329 -446 OFFCURVE",
"323 -453 OFFCURVE",
"318 -458 CURVE SMOOTH",
"312 -464 OFFCURVE",
"300 -477 OFFCURVE",
"292 -486 CURVE SMOOTH",
"282 -498 OFFCURVE",
"283 -507 OFFCURVE",
"283 -512 CURVE SMOOTH",
"283 -527 OFFCURVE",
"295 -538 OFFCURVE",
"309 -538 CURVE SMOOTH"
);
}
);
width = 600;
},
{
layerId = "FECF100D-BDC3-4CD6-B2D6-7D9BBCB18CB7";
paths = (
{
closed = 1;
nodes = (
"326 -538 OFFCURVE",
"338 -525 OFFCURVE",
"344 -502 CURVE SMOOTH",
"359 -446 OFFCURVE",
"362 -430 OFFCURVE",
"367 -338 CURVE",
"445 -342 LINE",
"421 -386 OFFCURVE",
"437 -461 OFFCURVE",
"453 -508 CURVE SMOOTH",
"463 -537 OFFCURVE",
"494 -550 OFFCURVE",
"522 -522 CURVE SMOOTH",
"541 -503 OFFCURVE",
"543 -470 OFFCURVE",
"540 -447 CURVE",
"526 -449 OFFCURVE",
"510 -453 OFFCURVE",
"492 -459 CURVE SMOOTH",
"474 -465 OFFCURVE",
"461 -459 OFFCURVE",
"457 -441 CURVE SMOOTH",
"447 -397 OFFCURVE",
"449 -387 OFFCURVE",
"460 -359 CURVE SMOOTH",
"464 -349 OFFCURVE",
"476 -344 OFFCURVE",
"496 -345 CURVE SMOOTH",
"515 -346 OFFCURVE",
"529 -348 OFFCURVE",
"538 -348 CURVE",
"547 -325 OFFCURVE",
"544 -308 OFFCURVE",
"539 -272 CURVE",
"508 -272 OFFCURVE",
"475 -270 OFFCURVE",
"439 -267 CURVE SMOOTH",
"403 -264 OFFCURVE",
"369 -263 OFFCURVE",
"338 -263 CURVE SMOOTH",
"303 -263 OFFCURVE",
"291 -276 OFFCURVE",
"279 -306 CURVE SMOOTH",
"273 -321 OFFCURVE",
"267 -342 OFFCURVE",
"263 -372 CURVE",
"273 -372 LINE",
"291 -345 OFFCURVE",
"309 -338 OFFCURVE",
"333 -338 CURVE SMOOTH",
"362 -338 OFFCURVE",
"342 -418 OFFCURVE",
"333 -437 CURVE SMOOTH",
"329 -446 OFFCURVE",
"323 -453 OFFCURVE",
"318 -458 CURVE SMOOTH",
"312 -464 OFFCURVE",
"300 -477 OFFCURVE",
"292 -486 CURVE SMOOTH",
"282 -498 OFFCURVE",
"283 -507 OFFCURVE",
"283 -512 CURVE SMOOTH",
"283 -527 OFFCURVE",
"295 -538 OFFCURVE",
"309 -538 CURVE SMOOTH"
);
}
);
width = 600;
}
);
},
{
export = 0;
glyphname = bou;
lastChange = "2019-03-12 05:52:44 +0000";
layers = (
{
layerId = "A383B3C9-E966-4FF1-BEC0-8A7CAA0DDDD2";
paths = (
{
closed = 1;
nodes = (
"467 -577 OFFCURVE",
"483 -534 OFFCURVE",
"490 -478 CURVE SMOOTH",
"499 -404 OFFCURVE",
"394 -354 OFFCURVE",
"325 -422 CURVE",
"325 -399 OFFCURVE",
"328 -355 OFFCURVE",
"351 -314 CURVE",
"363 -316 OFFCURVE",
"375 -319 OFFCURVE",
"389 -324 CURVE SMOOTH",
"403 -329 OFFCURVE",
"420 -331 OFFCURVE",
"441 -330 CURVE SMOOTH",
"489 -328 OFFCURVE",
"512 -226 OFFCURVE",
"431 -225 CURVE SMOOTH",
"342 -224 OFFCURVE",
"290 -355 OFFCURVE",
"290 -460 CURVE SMOOTH",
"290 -524 OFFCURVE",
"314 -572 OFFCURVE",
"373 -574 CURVE SMOOTH"
);
},
{
closed = 1;
nodes = (
"374 -552 OFFCURVE",
"327 -562 OFFCURVE",
"346 -486 CURVE SMOOTH",
"356 -446 OFFCURVE",
"386 -415 OFFCURVE",
"409 -418 CURVE SMOOTH",
"423 -420 OFFCURVE",
"433 -428 OFFCURVE",
"438 -440 CURVE SMOOTH",
"448 -463 OFFCURVE",
"427 -516 OFFCURVE",
"401 -534 CURVE SMOOTH"
);
},
{
closed = 1;
nodes = (
"419 -305 OFFCURVE",
"396 -310 OFFCURVE",
"382 -278 CURVE",
"403 -260 OFFCURVE",
"418 -250 OFFCURVE",
"443 -258 CURVE SMOOTH",
"459 -263 OFFCURVE",
"451 -301 OFFCURVE",
"435 -303 CURVE SMOOTH"
);
}
);
width = 600;
},
{
layerId = "FECF100D-BDC3-4CD6-B2D6-7D9BBCB18CB7";
paths = (
{
closed = 1;
nodes = (
"467 -577 OFFCURVE",
"483 -534 OFFCURVE",
"490 -478 CURVE SMOOTH",
"499 -404 OFFCURVE",
"394 -354 OFFCURVE",
"325 -422 CURVE",
"325 -399 OFFCURVE",
"328 -355 OFFCURVE",
"351 -314 CURVE",
"363 -316 OFFCURVE",
"375 -319 OFFCURVE",
"389 -324 CURVE SMOOTH",
"403 -329 OFFCURVE",
"420 -331 OFFCURVE",
"441 -330 CURVE SMOOTH",
"489 -328 OFFCURVE",
"512 -226 OFFCURVE",
"431 -225 CURVE SMOOTH",
"342 -224 OFFCURVE",
"290 -355 OFFCURVE",
"290 -460 CURVE SMOOTH",
"290 -524 OFFCURVE",
"314 -572 OFFCURVE",
"373 -574 CURVE SMOOTH"
);
},
{
closed = 1;
nodes = (
"374 -552 OFFCURVE",
"327 -562 OFFCURVE",
"346 -486 CURVE SMOOTH",
"356 -446 OFFCURVE",
"386 -415 OFFCURVE",
"409 -418 CURVE SMOOTH",
"423 -420 OFFCURVE",
"433 -428 OFFCURVE",
"438 -440 CURVE SMOOTH",
"448 -463 OFFCURVE",
"427 -516 OFFCURVE",
"401 -534 CURVE SMOOTH"
);
},
{
closed = 1;
nodes = (
"419 -305 OFFCURVE",
"396 -310 OFFCURVE",
"382 -278 CURVE",
"403 -260 OFFCURVE",
"418 -250 OFFCURVE",
"443 -258 CURVE SMOOTH",
"459 -263 OFFCURVE",
"451 -301 OFFCURVE",
"435 -303 CURVE SMOOTH"
);
}
);
width = 600;
}
);
},
{
export = 0;
glyphname = ga;
lastChange = "2019-03-12 05:52:44 +0000";
layers = (
{
layerId = "A383B3C9-E966-4FF1-BEC0-8A7CAA0DDDD2";
paths = (
{
closed = 1;
nodes = (
"330 -531 LINE",
"330 -314 LINE",
"389 -309 OFFCURVE",
"425 -307 OFFCURVE",
"438 -305 CURVE SMOOTH",
"463 -301 OFFCURVE",
"539 -294 OFFCURVE",
"539 -244 CURVE SMOOTH",
"539 -194 OFFCURVE",
"464 -189 OFFCURVE",
"472 -250 CURVE SMOOTH",
"475 -273 LINE",
"434 -282 LINE SMOOTH",
"406 -288 OFFCURVE",
"350 -292 OFFCURVE",
"267 -292 CURVE",
"267 -531 LINE"
);
}
);
width = 600;
},
{
layerId = "FECF100D-BDC3-4CD6-B2D6-7D9BBCB18CB7";
paths = (
{
closed = 1;
nodes = (
"330 -531 LINE",
"330 -314 LINE",
"389 -309 OFFCURVE",
"425 -307 OFFCURVE",
"438 -305 CURVE SMOOTH",
"463 -301 OFFCURVE",
"539 -294 OFFCURVE",
"539 -244 CURVE SMOOTH",
"539 -194 OFFCURVE",
"464 -189 OFFCURVE",
"472 -250 CURVE SMOOTH",
"475 -273 LINE",
"434 -282 LINE SMOOTH",
"406 -288 OFFCURVE",
"350 -292 OFFCURVE",
"267 -292 CURVE",
"267 -531 LINE"
);
}
);
width = 600;
}
);
},
{
export = 0;
glyphname = di;
lastChange = "2019-03-12 05:52:44 +0000";
layers = (
{
layerId = "A383B3C9-E966-4FF1-BEC0-8A7CAA0DDDD2";
paths = (
{
closed = 1;
nodes = (
"559 -524 LINE",
"411 -176 LINE",
"247 -524 LINE"
);
},
{
closed = 1;
nodes = (
"397 -268 LINE",
"489 -483 LINE",
"296 -483 LINE"
);
}
);
width = 600;
},
{
layerId = "FECF100D-BDC3-4CD6-B2D6-7D9BBCB18CB7";
paths = (
{
closed = 1;
nodes = (
"559 -524 LINE",
"411 -176 LINE",
"247 -524 LINE"
);
},
{
closed = 1;
nodes = (
"397 -268 LINE",
"489 -483 LINE",
"296 -483 LINE"
);
}
);
width = 600;
}
);
},
{
export = 0;
glyphname = ke;
lastChange = "2019-03-12 05:52:44 +0000";
layers = (
{
layerId = "A383B3C9-E966-4FF1-BEC0-8A7CAA0DDDD2";
paths = (
{
closed = 1;
nodes = (
"498 -539 OFFCURVE",
"516 -526 OFFCURVE",
"523 -518 CURVE SMOOTH",
"530 -510 OFFCURVE",
"540 -491 OFFCURVE",
"533 -466 CURVE SMOOTH",
"530 -455 OFFCURVE",
"504 -442 OFFCURVE",
"493 -461 CURVE SMOOTH",
"465 -510 OFFCURVE",
"445 -502 OFFCURVE",
"424 -467 CURVE SMOOTH",
"414 -450 OFFCURVE",
"408 -428 OFFCURVE",
"407 -402 CURVE",
"421 -379 OFFCURVE",
"436 -357 OFFCURVE",
"452 -335 CURVE SMOOTH",
"499 -269 LINE",
"445 -269 LINE",
"359 -395 LINE",
"364 -362 OFFCURVE",
"361 -339 OFFCURVE",
"357 -310 CURVE SMOOTH",
"353 -281 OFFCURVE",
"332 -261 OFFCURVE",
"311 -261 CURVE SMOOTH",
"275 -261 OFFCURVE",
"265 -286 OFFCURVE",
"271 -303 CURVE SMOOTH",
"277 -321 OFFCURVE",
"297 -323 OFFCURVE",
"305 -315 CURVE SMOOTH",
"309 -311 OFFCURVE",
"314 -309 OFFCURVE",
"320 -309 CURVE SMOOTH",
"340 -309 OFFCURVE",
"345 -331 OFFCURVE",
"346 -378 CURVE SMOOTH",
"347 -425 OFFCURVE",
"325 -450 OFFCURVE",
"303 -478 CURVE SMOOTH",
"292 -492 OFFCURVE",
"281 -508 OFFCURVE",
"270 -525 CURVE",
"323 -525 LINE",
"396 -419 LINE",
"399 -447 OFFCURVE",
"406 -467 OFFCURVE",
"410 -475 CURVE SMOOTH",
"429 -513 OFFCURVE",
"446 -533 OFFCURVE",
"480 -537 CURVE SMOOTH"
);
}
);
width = 600;
},
{
layerId = "FECF100D-BDC3-4CD6-B2D6-7D9BBCB18CB7";
paths = (
{
closed = 1;
nodes = (
"498 -539 OFFCURVE",
"516 -526 OFFCURVE",
"523 -518 CURVE SMOOTH",
"530 -510 OFFCURVE",
"540 -491 OFFCURVE",
"533 -466 CURVE SMOOTH",
"530 -455 OFFCURVE",
"504 -442 OFFCURVE",
"493 -461 CURVE SMOOTH",
"465 -510 OFFCURVE",
"445 -502 OFFCURVE",
"424 -467 CURVE SMOOTH",
"414 -450 OFFCURVE",
"408 -428 OFFCURVE",
"407 -402 CURVE",
"421 -379 OFFCURVE",
"436 -357 OFFCURVE",
"452 -335 CURVE SMOOTH",
"499 -269 LINE",
"445 -269 LINE",
"359 -395 LINE",
"364 -362 OFFCURVE",
"361 -339 OFFCURVE",
"357 -310 CURVE SMOOTH",
"353 -281 OFFCURVE",
"332 -261 OFFCURVE",
"311 -261 CURVE SMOOTH",
"275 -261 OFFCURVE",
"265 -286 OFFCURVE",
"271 -303 CURVE SMOOTH",
"277 -321 OFFCURVE",
"297 -323 OFFCURVE",
"305 -315 CURVE SMOOTH",
"309 -311 OFFCURVE",
"314 -309 OFFCURVE",
"320 -309 CURVE SMOOTH",
"340 -309 OFFCURVE",
"345 -331 OFFCURVE",
"346 -378 CURVE SMOOTH",
"347 -425 OFFCURVE",
"325 -450 OFFCURVE",
"303 -478 CURVE SMOOTH",
"292 -492 OFFCURVE",
"281 -508 OFFCURVE",
"270 -525 CURVE",
"323 -525 LINE",
"396 -419 LINE",
"399 -447 OFFCURVE",
"406 -467 OFFCURVE",
"410 -475 CURVE SMOOTH",
"429 -513 OFFCURVE",
"446 -533 OFFCURVE",
"480 -537 CURVE SMOOTH"
);
}
);
width = 600;
}
);
},
{
export = 0;
glyphname = zo;
lastChange = "2019-03-12 05:52:44 +0000";
layers = (
{
layerId = "A383B3C9-E966-4FF1-BEC0-8A7CAA0DDDD2";
paths = (
{
closed = 1;
nodes = (
"554 -565 OFFCURVE",
"580 -506 OFFCURVE",
"580 -473 CURVE SMOOTH",
"580 -444 OFFCURVE",
"575 -417 OFFCURVE",
"539 -421 CURVE SMOOTH",
"496 -426 OFFCURVE",
"514 -496 OFFCURVE",
"548 -477 CURVE",
"551 -474 OFFCURVE",
"553 -476 OFFCURVE",
"552 -482 CURVE SMOOTH",
"551 -488 OFFCURVE",
"551 -491 OFFCURVE",
"551 -492 CURVE",
"543 -511 OFFCURVE",
"533 -520 OFFCURVE",
"521 -520 CURVE SMOOTH",
"497 -520 OFFCURVE",
"471 -501 OFFCURVE",
"447 -481 CURVE SMOOTH",
"435 -471 OFFCURVE",
"425 -465 OFFCURVE",
"418 -465 CURVE SMOOTH",
"359 -465 OFFCURVE",
"339 -472 OFFCURVE",
"315 -486 CURVE",
"508 -279 LINE",
"520 -270 OFFCURVE",
"522 -241 OFFCURVE",
"508 -243 CURVE",
"499 -243 OFFCURVE",
"488 -247 OFFCURVE",
"476 -256 CURVE SMOOTH",
"471 -260 OFFCURVE",
"467 -264 OFFCURVE",
"463 -269 CURVE",
"459 -273 OFFCURVE",
"455 -276 OFFCURVE",
"452 -277 CURVE",
"444 -278 OFFCURVE",
"437 -280 OFFCURVE",
"428 -281 CURVE SMOOTH",
"411 -283 OFFCURVE",
"396 -279 OFFCURVE",
"379 -264 CURVE SMOOTH",
"371 -257 OFFCURVE",
"363 -250 OFFCURVE",
"354 -247 CURVE SMOOTH",
"329 -239 OFFCURVE",
"306 -242 OFFCURVE",
"284 -255 CURVE",
"283 -257 OFFCURVE",
"274 -267 OFFCURVE",
"259 -287 CURVE SMOOTH",
"228 -328 OFFCURVE",
"263 -312 OFFCURVE",
"277 -301 CURVE SMOOTH",
"283 -296 OFFCURVE",
"295 -294 OFFCURVE",
"309 -294 CURVE SMOOTH",
"317 -294 OFFCURVE",
"323 -297 OFFCURVE",
"327 -302 CURVE",
"331 -308 OFFCURVE",
"340 -315 OFFCURVE",
"355 -322 CURVE SMOOTH",
"367 -328 OFFCURVE",
"383 -328 OFFCURVE",
"401 -322 CURVE SMOOTH",
"419 -316 OFFCURVE",
"429 -315 OFFCURVE",
"429 -318 CURVE",
"229 -532 LINE",
"215 -549 OFFCURVE",
"250 -574 OFFCURVE",
"270 -549 CURVE",
"273 -546 OFFCURVE",
"275 -543 OFFCURVE",
"275 -541 CURVE SMOOTH",
"275 -539 OFFCURVE",
"278 -536 OFFCURVE",
"281 -534 CURVE SMOOTH",
"304 -519 OFFCURVE",
"321 -511 OFFCURVE",
"336 -513 CURVE SMOOTH",
"367 -517 OFFCURVE",
"392 -534 OFFCURVE",
"417 -552 CURVE SMOOTH",
"429 -561 OFFCURVE",
"443 -565 OFFCURVE",
"459 -565 CURVE SMOOTH"
);
}
);
width = 600;
},
{
layerId = "FECF100D-BDC3-4CD6-B2D6-7D9BBCB18CB7";
paths = (
{
closed = 1;
nodes = (
"554 -565 OFFCURVE",
"580 -506 OFFCURVE",
"580 -473 CURVE SMOOTH",
"580 -444 OFFCURVE",
"575 -417 OFFCURVE",
"539 -421 CURVE SMOOTH",
"496 -426 OFFCURVE",
"514 -496 OFFCURVE",
"548 -477 CURVE",
"551 -474 OFFCURVE",
"553 -476 OFFCURVE",
"552 -482 CURVE SMOOTH",
"551 -488 OFFCURVE",
"551 -491 OFFCURVE",
"551 -492 CURVE",
"543 -511 OFFCURVE",
"533 -520 OFFCURVE",
"521 -520 CURVE SMOOTH",
"497 -520 OFFCURVE",
"471 -501 OFFCURVE",
"447 -481 CURVE SMOOTH",
"435 -471 OFFCURVE",
"425 -465 OFFCURVE",
"418 -465 CURVE SMOOTH",
"359 -465 OFFCURVE",
"339 -472 OFFCURVE",
"315 -486 CURVE",
"508 -279 LINE",
"520 -270 OFFCURVE",
"522 -241 OFFCURVE",
"508 -243 CURVE",
"499 -243 OFFCURVE",
"488 -247 OFFCURVE",
"476 -256 CURVE SMOOTH",
"471 -260 OFFCURVE",
"467 -264 OFFCURVE",
"463 -269 CURVE",
"459 -273 OFFCURVE",
"455 -276 OFFCURVE",
"452 -277 CURVE",
"444 -278 OFFCURVE",
"437 -280 OFFCURVE",
"428 -281 CURVE SMOOTH",
"411 -283 OFFCURVE",
"396 -279 OFFCURVE",
"379 -264 CURVE SMOOTH",
"371 -257 OFFCURVE",
"363 -250 OFFCURVE",
"354 -247 CURVE SMOOTH",
"329 -239 OFFCURVE",
"306 -242 OFFCURVE",
"284 -255 CURVE",
"283 -257 OFFCURVE",
"274 -267 OFFCURVE",
"259 -287 CURVE SMOOTH",
"228 -328 OFFCURVE",
"263 -312 OFFCURVE",
"277 -301 CURVE SMOOTH",
"283 -296 OFFCURVE",
"295 -294 OFFCURVE",
"309 -294 CURVE SMOOTH",
"317 -294 OFFCURVE",
"323 -297 OFFCURVE",
"327 -302 CURVE",
"331 -308 OFFCURVE",
"340 -315 OFFCURVE",
"355 -322 CURVE SMOOTH",
"367 -328 OFFCURVE",
"383 -328 OFFCURVE",
"401 -322 CURVE SMOOTH",
"419 -316 OFFCURVE",
"429 -315 OFFCURVE",
"429 -318 CURVE",
"229 -532 LINE",
"215 -549 OFFCURVE",
"250 -574 OFFCURVE",
"270 -549 CURVE",
"273 -546 OFFCURVE",
"275 -543 OFFCURVE",
"275 -541 CURVE SMOOTH",
"275 -539 OFFCURVE",
"278 -536 OFFCURVE",
"281 -534 CURVE SMOOTH",
"304 -519 OFFCURVE",
"321 -511 OFFCURVE",
"336 -513 CURVE SMOOTH",
"367 -517 OFFCURVE",
"392 -534 OFFCURVE",
"417 -552 CURVE SMOOTH",
"429 -561 OFFCURVE",
"443 -565 OFFCURVE",
"459 -565 CURVE SMOOTH"
);
}
);
width = 600;
}
);
},
{
export = 0;
glyphname = ni;
lastChange = "2019-03-12 05:52:44 +0000";
layers = (
{
layerId = "A383B3C9-E966-4FF1-BEC0-8A7CAA0DDDD2";
paths = (
{
closed = 1;
nodes = (
"361 -508 OFFCURVE",
"363 -508 OFFCURVE",
"364 -507 CURVE",
"381 -483 OFFCURVE",
"397 -462 OFFCURVE",
"412 -442 CURVE SMOOTH",
"427 -422 OFFCURVE",
"442 -405 OFFCURVE",
"455 -386 CURVE SMOOTH",
"483 -345 OFFCURVE",
"488 -261 OFFCURVE",
"444 -232 CURVE",
"440 -234 OFFCURVE",
"439 -239 OFFCURVE",
"441 -248 CURVE SMOOTH",
"443 -257 OFFCURVE",
"443 -267 OFFCURVE",
"442 -279 CURVE",
"433 -317 OFFCURVE",
"421 -346 OFFCURVE",
"408 -366 CURVE SMOOTH",
"394 -387 OFFCURVE",
"381 -409 OFFCURVE",
"366 -433 CURVE",
"360 -389 OFFCURVE",
"352 -352 OFFCURVE",
"338 -314 CURVE SMOOTH",
"335 -306 OFFCURVE",
"333 -297 OFFCURVE",
"331 -288 CURVE SMOOTH",
"329 -279 OFFCURVE",
"326 -272 OFFCURVE",
"323 -268 CURVE",
"313 -253 OFFCURVE",
"303 -242 OFFCURVE",
"290 -240 CURVE SMOOTH",
"277 -238 OFFCURVE",
"267 -247 OFFCURVE",
"269 -267 CURVE SMOOTH",
"270 -278 OFFCURVE",
"272 -283 OFFCURVE",
"279 -290 CURVE SMOOTH",
"281 -292 OFFCURVE",
"288 -296 OFFCURVE",
"300 -303 CURVE",
"311 -310 OFFCURVE",
"324 -321 OFFCURVE",
"328 -335 CURVE SMOOTH",
"330 -342 OFFCURVE",
"332 -350 OFFCURVE",
"335 -357 CURVE",
"347 -398 OFFCURVE",
"353 -427 OFFCURVE",
"352 -445 CURVE SMOOTH",
"351 -462 OFFCURVE",
"353 -484 OFFCURVE",
"358 -508 CURVE"
);
}
